<svg width="34" height="28" fill="none" xmlns="http://www.w3.org/2000/svg"><path d="M.72 13.639c0-.545.229-1.072.633-1.459L12.903.633C13.36.193 13.835 0 14.327 0c1.126 0 1.934.79 1.934 1.863 0 .562-.228 1.037-.58 1.389l-3.956 4.007-5.098 4.657 4.079-.246h21.307c1.178 0 1.987.809 1.987 1.969 0 1.142-.809 1.95-1.987 1.95H10.706l-4.079-.245L11.725 20l3.956 4.008c.352.351.58.825.58 1.388 0 1.072-.808 1.863-1.934 1.863-.492 0-.967-.193-1.389-.598L1.353 15.08a2.015 2.015 0 01-.633-1.441z" fill="#FF170A"/></svg>