<svg width="34" height="28" fill="none" xmlns="http://www.w3.org/2000/svg"><path d="M33.28 13.639c0-.545-.229-1.072-.633-1.459L21.097.633C20.64.193 20.165 0 19.673 0c-1.125 0-1.934.79-1.934 1.863 0 .562.228 1.037.58 1.389l3.956 4.007 5.098 4.657-4.079-.246H1.987C.809 11.67 0 12.48 0 13.64c0 1.142.809 1.95 1.987 1.95h21.307l4.079-.245L22.275 20l-3.956 4.008a1.93 1.93 0 00-.58 1.388c0 1.072.808 1.863 1.934 1.863.492 0 .967-.193 1.389-.598L32.647 15.08c.404-.387.633-.914.633-1.441z" fill="#FF170A"/></svg>