<svg width="696" height="50" fill="none" xmlns="http://www.w3.org/2000/svg"><path d="M35.193 37l47 4.333V50h-47V37zm0-18l47 9.208V36l-47-4.25V19zm0-19l47 14.903V22l-47-9.935V0z" fill="#FF170A"/><path d="M1.043 41.333l34-4.333v13h-34v-8.667zM.984 28.36l34-9.36v12.96L.984 37v-8.64zM.955 13.484L34.955 0v12.065L.955 22v-8.516z" fill="#D2180D"/><path fill-rule="evenodd" clip-rule="evenodd" d="M122.028 17.732c.443 1.62.104 2.809-1.044 3.51-1.278.81-3.966-.566-5.453-.864-4.174-.89-6.653-.378-7.409 1.486-1.279 3.322.26 5.887 4.618 7.697 8.714 2.97 12.471 7.264 11.218 12.855-1.617 6.697-6.47 8.966-14.558 6.778-4.566-1.755-6.94-3.538-7.175-5.374.496-1.89 1.905-2.35 4.175-1.404 5.557 3.294 9.601 3.619 12.106.945 1.461-3.43.547-5.698-2.766-6.779-5.375-2.484-9.106-4.618-11.219-6.427-3.47-4.537-3.053-8.94 1.2-13.233 4.801-2.809 10.254-2.539 16.307.81zm7.401 12.013h1.483v18.202c0 1.135.928 2.053 2.093 2.053h1.033c1.139 0 2.093-.918 2.093-2.053V29.745h4.53c1.298 0 2.384-1.026 2.384-2.322 0-1.27-1.086-2.323-2.384-2.323h-4.53v-8.048c0-1.134-.954-2.052-2.093-2.052h-1.033c-1.165 0-2.093.918-2.093 2.052V25.1h-1.483c-1.324 0-2.384 1.053-2.384 2.323 0 1.296 1.06 2.322 2.384 2.322zm17.866-4c1.057-1.059 1.843-.679 3.361-.679h7.318c3.333.707 5.339 2.744 6.071 6.139v17.301c-.108.76-.867 1.25-2.223 1.494h-10.95c-3.686-.978-5.637-3.45-5.827-7.442-.027-4.237 2.114-6.682 6.451-7.388 4.879.027 7.345.027 7.345.027.027-2.281.027-3.449.027-3.449-.352-1.114-1.301-1.765-2.792-1.901-3.279-.027-5.529-.027-6.776-.055-2.412-.027-3.577-2.526-2.005-4.047zm11.6 14.341h-6.369c-1.491 0-2.683 1.168-2.683 2.58 0 1.413 1.192 2.58 2.683 2.58h6.369v-5.16zM181.768 50h1.269c1.109 0 2.008-.897 2.008-1.984V31.25c0-1.902-1.031-3.07-2.59-4.294-1.453-1.168-2.114-1.956-3.964-1.956H167.71c-.925 0-1.665.706-1.665 1.603V48.37c0 .896.74 1.63 1.665 1.63h1.77c.899 0 1.639-.734 1.639-1.63V29.783l6.738-.055c.687.027 1.321.408 1.903 1.114v17.174c0 1.087.898 1.984 2.008 1.984zm24.014-.027c-.134 0-.242.027-.349.027h-1.962c-.107 0-.214-.027-.322-.027h-9.457c-3.063-.297-5.24-2.539-5.32-5.617l-.323-11.154c-.134-4.186 2.848-7.805 7.255-8.399h6.582V16.54c0-.864.726-1.539 1.585-1.539h1.962c.886 0 1.612.675 1.612 1.54v31.92c0 .73-.564 1.351-1.263 1.513zm-12.655-5.158h8.759v-14.88h-8.759v14.88zm19.171-19.07c1.059-1.059 1.846-.679 3.366-.679h7.328c3.339.707 5.347 2.744 6.053 6.139v17.301c-.109.76-.841 1.25-2.199 1.494h-10.965c-3.719-.978-5.646-3.45-5.836-7.442-.027-4.237 2.117-6.682 6.46-7.388 4.886.027 7.329.027 7.329.027.027-2.281.054-3.449.054-3.449-.38-1.114-1.303-1.765-2.796-1.901-3.311-.027-5.564-.027-6.785-.055-2.443-.027-3.583-2.526-2.009-4.047zm11.617 14.341h-6.378c-1.493 0-2.715 1.168-2.715 2.58 0 1.413 1.222 2.58 2.715 2.58h6.378v-5.16zM232.369 50h.774c1.283 0 2.351-1.033 2.351-2.255V29.81h5.102v1.005c0 1.468 1.229 2.636 2.724 2.636 1.496 0 2.725-1.168 2.725-2.636v-3.18c0-1.086-.294-2.635-1.683-2.635h-12.795c-.828 0-1.522.652-1.522 1.467v21.278c0 1.222 1.042 2.255 2.324 2.255zm18.06-20.255h1.483v18.202c0 1.135.954 2.053 2.093 2.053h1.033c1.166 0 2.093-.918 2.093-2.053V29.745h4.53c1.298 0 2.384-1.026 2.384-2.322 0-1.27-1.086-2.323-2.384-2.323h-4.53v-8.048c0-1.134-.927-2.052-2.093-2.052h-1.033c-1.139 0-2.093.918-2.093 2.052V25.1h-1.483c-1.324 0-2.384 1.053-2.384 2.323 0 1.296 1.06 2.322 2.384 2.322z" fill="#FF170A"/><path d="M284.045 49.831V26.169h2.003v23.662h-2.003zm24.744 0V26.169H328.4v23.662h-1.736V27.183l.511.54h-17.16l.511-.54v22.648h-1.737zm31.6 0V26.169h8.546c1.997 0 3.711.316 5.141.947 1.43.63 2.531 1.543 3.302 2.738.772 1.171 1.158 2.602 1.158 4.293 0 1.645-.386 3.064-1.158 4.259-.771 1.194-1.872 2.107-3.302 2.738-1.43.63-3.144.946-5.141.946h-7.593l.783-.811v8.552h-1.736zm1.736-8.45l-.783-.846h7.593c2.565 0 4.505-.552 5.822-1.656 1.339-1.127 2.008-2.704 2.008-4.732 0-2.051-.669-3.629-2.008-4.733-1.317-1.127-3.257-1.69-5.822-1.69h-7.593l.783-.845V41.38zM378.047 50c-1.771 0-3.416-.293-4.937-.879a12.465 12.465 0 01-3.95-2.535 11.883 11.883 0 01-2.587-3.82c-.613-1.465-.919-3.053-.919-4.766s.306-3.29.919-4.732a11.414 11.414 0 012.587-3.82 11.733 11.733 0 013.95-2.535c1.521-.609 3.166-.913 4.937-.913 1.77 0 3.404.304 4.902.913 1.521.586 2.838 1.42 3.95 2.501a11.414 11.414 0 012.587 3.82c.636 1.442.954 3.03.954 4.766 0 1.735-.318 3.335-.954 4.8a11.503 11.503 0 01-2.587 3.786c-1.112 1.082-2.429 1.927-3.95 2.535-1.498.586-3.132.879-4.902.879zm0-1.589c1.52 0 2.928-.259 4.221-.777a10.006 10.006 0 003.371-2.197 10.014 10.014 0 002.213-3.313c.545-1.262.817-2.637.817-4.124 0-1.51-.272-2.885-.817-4.124a10.014 10.014 0 00-2.213-3.313 10.006 10.006 0 00-3.371-2.197c-1.293-.518-2.701-.777-4.221-.777-1.521 0-2.928.259-4.222.777a10.385 10.385 0 00-3.405 2.197 10.472 10.472 0 00-2.247 3.313c-.522 1.24-.783 2.614-.783 4.124 0 1.487.261 2.862.783 4.124a10.472 10.472 0 002.247 3.313 10.385 10.385 0 003.405 2.197c1.294.518 2.701.777 4.222.777zm23.749-11.358H414.7v1.522h-12.904v-1.522zM402 48.276h14.708v1.555h-16.445V26.169h15.935v1.555H402v20.552zm40.459 1.555l-9.636-11.899 1.464-.845 10.214 12.744h-2.042zm-16.547 0V26.169h1.736v23.662h-1.736zm1.157-11.223v-1.554h7.252v1.554h-7.252zm7.32-.439l-1.6-.338 9.159-11.662h1.941l-9.5 12zm22.2 11.662V27.183l.511.54h-9.09V26.17h18.895v1.555h-9.09l.511-.54V49.83h-1.737zm36.028-23.662h1.737v23.662h-1.737V26.169zm-15.933 23.662h-1.737V26.169h1.737v23.662zm16.138-11.256h-16.343v-1.522h16.343v1.522zM516.561 50c-1.77 0-3.416-.293-4.936-.879a12.465 12.465 0 01-3.95-2.535 11.867 11.867 0 01-2.587-3.82c-.613-1.465-.92-3.053-.92-4.766s.307-3.29.92-4.732a11.4 11.4 0 012.587-3.82 11.733 11.733 0 013.95-2.535c1.52-.609 3.166-.913 4.936-.913 1.771 0 3.405.304 4.903.913 1.521.586 2.837 1.42 3.95 2.501a11.414 11.414 0 012.587 3.82c.636 1.442.953 3.03.953 4.766 0 1.735-.317 3.335-.953 4.8a11.503 11.503 0 01-2.587 3.786c-1.113 1.082-2.429 1.927-3.95 2.535-1.498.586-3.132.879-4.903.879zm0-1.589c1.521 0 2.928-.259 4.222-.777a10.015 10.015 0 003.371-2.197 10.014 10.014 0 002.213-3.313c.545-1.262.817-2.637.817-4.124 0-1.51-.272-2.885-.817-4.124a10.014 10.014 0 00-2.213-3.313 10.015 10.015 0 00-3.371-2.197c-1.294-.518-2.701-.777-4.222-.777-1.52 0-2.928.259-4.221.777a10.385 10.385 0 00-3.405 2.197 10.472 10.472 0 00-2.247 3.313c-.522 1.24-.783 2.614-.783 4.124 0 1.487.261 2.862.783 4.124a10.472 10.472 0 002.247 3.313 10.385 10.385 0 003.405 2.197c1.293.518 2.701.777 4.221.777zm23.749-11.358h12.904v1.522H540.31v-1.522zm.204 11.223h14.708v1.555h-16.444V26.169h15.934v1.555h-14.198v20.552zm36.061 1.555V26.169h16.989v1.521h-15.253v8.518h8.069c2.792 0 4.914.564 6.367 1.69 1.453 1.127 2.179 2.784 2.179 4.97 0 2.276-.772 4.01-2.315 5.205-1.521 1.172-3.757 1.758-6.707 1.758h-9.329zm1.736-1.454h7.627c2.383 0 4.188-.45 5.413-1.352 1.226-.924 1.839-2.287 1.839-4.09 0-3.538-2.418-5.307-7.252-5.307h-7.627v10.75zm26.273 1.454V26.169h1.736v10.85h6.129v1.59h-6.129V49.83h-1.736zm18.794.169c-1.68 0-3.235-.293-4.665-.879a11.56 11.56 0 01-3.745-2.535 11.856 11.856 0 01-2.451-3.786c-.59-1.465-.886-3.065-.886-4.8 0-1.735.296-3.324.886-4.766a11.765 11.765 0 012.451-3.82 11.127 11.127 0 013.745-2.501c1.43-.609 2.985-.913 4.665-.913 1.656 0 3.2.304 4.63.913a10.691 10.691 0 013.745 2.501 11.484 11.484 0 012.485 3.82c.591 1.442.886 3.03.886 4.766 0 1.735-.295 3.335-.886 4.8a11.569 11.569 0 01-2.485 3.786c-1.044 1.082-2.292 1.927-3.745 2.535-1.43.586-2.974.879-4.63.879zm0-1.589c1.407 0 2.712-.259 3.915-.777a9.768 9.768 0 003.2-2.164 10.093 10.093 0 002.111-3.312c.5-1.262.749-2.648.749-4.158 0-1.51-.249-2.896-.749-4.158a9.718 9.718 0 00-2.111-3.279 9.523 9.523 0 00-3.2-2.197c-1.203-.518-2.508-.777-3.915-.777-1.408 0-2.724.259-3.95.777a9.618 9.618 0 00-3.166 2.197c-.885.924-1.589 2.017-2.111 3.28-.499 1.261-.749 2.647-.749 4.157 0 1.51.25 2.896.749 4.158a10.9 10.9 0 002.111 3.312 9.87 9.87 0 003.166 2.164c1.226.518 2.542.777 3.95.777zm21.616 1.42V26.169h8.546c1.997 0 3.711.316 5.141.947 1.43.63 2.531 1.543 3.303 2.738.771 1.171 1.157 2.602 1.157 4.293 0 1.645-.386 3.064-1.157 4.259-.772 1.194-1.873 2.107-3.303 2.738-1.43.63-3.144.946-5.141.946h-7.592l.783-.811v8.552h-1.737zm1.737-8.45l-.783-.846h7.592c2.565 0 4.506-.552 5.822-1.656 1.339-1.127 2.009-2.704 2.009-4.732 0-2.051-.67-3.629-2.009-4.733-1.316-1.127-3.257-1.69-5.822-1.69h-7.592l.783-.845V41.38zM682.652 50c-1.771 0-3.416-.293-4.937-.879a12.46 12.46 0 01-3.949-2.535 11.886 11.886 0 01-2.588-3.82c-.613-1.465-.919-3.053-.919-4.766s.306-3.29.919-4.732a11.417 11.417 0 012.588-3.82 11.728 11.728 0 013.949-2.535c1.521-.609 3.166-.913 4.937-.913 1.77 0 3.405.304 4.903.913 1.52.586 2.837 1.42 3.949 2.501a11.417 11.417 0 012.588 3.82c.635 1.442.953 3.03.953 4.766 0 1.735-.318 3.335-.953 4.8a11.506 11.506 0 01-2.588 3.786c-1.112 1.082-2.429 1.927-3.949 2.535-1.498.586-3.133.879-4.903.879zm0-1.589c1.521 0 2.928-.259 4.222-.777a10.011 10.011 0 003.37-2.197 9.998 9.998 0 002.213-3.313c.545-1.262.818-2.637.818-4.124 0-1.51-.273-2.885-.818-4.124a9.998 9.998 0 00-2.213-3.313 10.011 10.011 0 00-3.37-2.197c-1.294-.518-2.701-.777-4.222-.777-1.521 0-2.928.259-4.222.777a10.385 10.385 0 00-3.405 2.197 10.472 10.472 0 00-2.247 3.313c-.522 1.24-.783 2.614-.783 4.124 0 1.487.261 2.862.783 4.124a10.472 10.472 0 002.247 3.313 10.385 10.385 0 003.405 2.197c1.294.518 2.701.777 4.222.777z" opacity=".6" fill="#000"/></svg>