<svg width="156" height="152" fill="none" xmlns="http://www.w3.org/2000/svg"><path d="M60.969 128.487l-1.69-.62-5.786 15.772 1.24.454a3.373 3.373 0 011.056-.788c.708-.328 1.732-.541 3.109-.112l.371-1.014-2.929-1.075 4.629-12.617zm-14.118-4.04a6.287 6.287 0 00-.224-1.854c-.296-1.099-.917-2.41-2.365-3.633-2.659-2.247-5.871-1.977-7.963.498-2.029 2.402-1.748 5.75.745 7.857.789.666 1.533 1.012 2.125 1.167.331.091.66.148.97.191l-3.683 3.8-5.683-4.802-1.084 1.283 6.874 5.809 6.577-6.853-1.008-.852a4.6 4.6 0 01-1.27.089c-.753-.039-1.762-.295-2.733-1.116-1.76-1.487-1.942-3.651-.455-5.411 1.487-1.76 3.67-1.926 5.503-.377 1.1.929 1.581 1.996 1.825 2.861.125.483.183.972.158 1.485l1.691-.142zM27.53 97.77a2.08 2.08 0 00.018-.471 5.01 5.01 0 00-.123-1.104c-.626-2.81-2.774-4.176-12.73-1.958l-3.28.73L9.85 87.94l14.759-3.287-.392-1.757-16.398 3.653 2.349 10.541 4.92-1.096c8.667-1.93 10.242-.93 10.634.828.067.304.083.596.076.893.013.169-.003.32-.024.447l1.757-.391zm-3.38-25.034l2.346-11.524-1.646-.335-1.986 9.76-6.115-1.245 1.556-7.643-1.647-.335-1.555 7.643-5.41-1.1 1.94-9.525-1.647-.336-2.298 11.289 16.463 3.35zm8.548-24.267l1.002-1.495-12.557-8.422 2.941-4.385-1.395-.936-6.885 10.265 1.395.936 2.941-4.385 12.558 8.422zm21.161-19.662l1.697-.6-2.561-7.24 8.824-3.122 2.561 7.24 1.697-.6-5.603-15.839-1.697.6 2.481 7.015-8.824 3.121-2.48-7.014-1.698.6 5.603 15.839zm20.983-5.793l1.914.153 2.288-4.512 7.894.633 1.54 4.819 1.914.153-5.595-17.302-1.675-.134-8.28 16.19zm5.054-5.976l3.862-7.635 2.597 8.153-6.46-.518zm29.691 15.951l1.33 1.213 4.207-4.608 3.368 3.075c2.304 2.104 5.541 1.94 7.547-.258 2.007-2.198 1.877-5.436-.427-7.54l-4.697-4.289-11.328 12.407zm6.67-4.635l4.855-5.317 3.367 3.075c1.613 1.472 1.704 3.473.231 5.085-1.472 1.613-3.473 1.704-5.086.232l-3.367-3.075zm9.456 22.112l2.161 5.726c1.101 2.92 4.062 4.24 6.846 3.189 2.785-1.05 4.135-3.998 3.034-6.917l-1.525-4.041 5.838-2.203-.635-1.684-15.719 5.93zm5.084 13.473l.635 1.684 15.719-5.93-.636-1.684-15.718 5.93zm-2.876-12.382l6.736-2.541 1.525 4.041c.771 2.044-.054 3.869-2.097 4.64-2.044.77-3.868-.054-4.639-2.098l-1.525-4.042zm4.655 24.962l-.196 1.79 7.634.836-1.02 9.305-7.635-.838-.196 1.79 16.7 1.83.196-1.789-7.395-.81 1.02-9.305 7.395.811.197-1.79-16.7-1.83zm-4.924 23.178l-.908 1.554 4.247 2.484 1.411 4.717-10.384.878-1.09 1.865 12.007-1.04 2.798 9.003 1.151-1.968-3.822-12.244 8.183 4.786.909-1.554-14.502-8.481zm-12.549 17.526l-9.491 6.943.992 1.356 8.039-5.88 3.684 5.036-6.295 4.605.991 1.356 6.296-4.605 3.259 4.455-7.845 5.739.992 1.356 9.298-6.802-9.92-13.559zm-18.174 11.799c-.228-.708-.802-1.003-1.51-.775-.709.229-1.003.802-.775 1.511.228.708.802 1.002 1.51.774.709-.228 1.003-.802.775-1.51z" fill="#FF170A"/></svg>