<svg width="360" height="355" fill="none" xmlns="http://www.w3.org/2000/svg"><path d="M341.129 188.616l.871-.896v5.569h-1.741v-11.9H342v6.113l-.871-.896h17.354l-.925.869v-5.76h1.741v6.901h-18.17zm-4.122 21.736c.142-.968.379-1.885.708-2.752.327-.849.715-1.616 1.164-2.3a8.473 8.473 0 011.512-1.673l1.395 1.167c-.687.558-1.315 1.335-1.884 2.332-.553 1.017-.928 2.188-1.123 3.514-.167 1.129-.135 2.095.095 2.898.229.803.603 1.435 1.122 1.895.536.464 1.181.751 1.935.862.753.111 1.446.012 2.079-.298.647-.289 1.201-.876 1.661-1.76.476-.864.834-2.111 1.075-3.742l.655-4.435 9.298 2.385-1.571 10.645-1.722-.254 1.456-9.865.795 1.133-7.789-1.998 1.108-.798-.563 3.817c-.286 1.935-.757 3.45-1.413 4.543-.638 1.096-1.409 1.843-2.31 2.242-.905.416-1.904.543-2.999.382a5.612 5.612 0 01-2.764-1.203c-.787-.629-1.363-1.51-1.727-2.644-.367-1.116-.431-2.48-.193-4.093zm-7.593 25.576l1.5.72c-.062.112-.13.213-.203.301-.062.112-.11.21-.142.295-.208.541-.171 1.05.112 1.527.277.494.721.955 1.333 1.384.612.429 1.329.839 2.149 1.231.837.399 1.678.789 2.522 1.171l4.661 2.049-3.752 9.765-13.332-5.111.692-1.801 12.29 4.712-.708.253 2.787-7.255.393.645-3.782-1.682a42.247 42.247 0 01-3.194-1.545c-1.004-.521-1.852-1.069-2.544-1.645-.698-.558-1.188-1.154-1.469-1.785-.265-.626-.261-1.294.012-2.004.078-.203.176-.408.294-.614.112-.19.239-.394.381-.611zm-13.852 27.826c.719-1.301 1.619-2.294 2.702-2.98a6.953 6.953 0 013.537-1.061c1.275-.021 2.532.309 3.77.992 1.239.682 2.19 1.548 2.854 2.596a6.765 6.765 0 011.03 3.422c.039 1.242-.261 2.442-.901 3.6-.648 1.173-1.492 2.064-2.531 2.67-1.032.631-2.177.942-3.434.931-1.242-.001-2.49-.347-3.744-1.039a1.652 1.652 0 01-.249-.168l-.262-.144 6.004-10.872 1.262.695-5.505 9.968-.132-.941c.905.498 1.817.742 2.734.73a4.79 4.79 0 002.534-.651c.765-.447 1.389-1.107 1.87-1.98.473-.856.7-1.735.679-2.635a4.71 4.71 0 00-.787-2.513c-.504-.774-1.217-1.415-2.138-1.923l-.262-.144c-.952-.525-1.908-.782-2.866-.773a5.293 5.293 0 00-2.663.829c-.817.543-1.493 1.298-2.027 2.265a6.235 6.235 0 00-.765 2.341c-.098.814 0 1.613.293 2.395l-1.621.348a6.1 6.1 0 01-.369-2.934c.107-1.017.436-2.025.987-3.024zm-10.869 15.249l10.517 7.819-.707.084 3.524-4.729 1.353 1.006-7.617 10.222-1.352-1.006 3.524-4.73.122.701-10.517-7.819 1.153-1.548zm-18.538 19.482l9.724 10.446-1.414 1.314-4.297-4.616-6.594 6.124 4.297 4.616-1.414 1.313-9.724-10.446 1.414-1.313 4.297 4.616 6.594-6.124-4.297-4.616 1.414-1.314zm-25.826 19.42l1.799 2.589.362.377 3.01 4.33c.693.997 1.509 1.567 2.447 1.71.923.153 1.936-.153 3.038-.917a7.542 7.542 0 001.904-1.883c.509-.728.857-1.465 1.044-2.213l1.538.687c-.245.919-.691 1.802-1.339 2.648a9.887 9.887 0 01-2.341 2.253c-1.519 1.054-2.952 1.485-4.299 1.295-1.351-.165-2.56-1.014-3.625-2.547l-5.058-7.275 1.52-1.054zm3.966-2.916c.879-.61 1.744-1.001 2.596-1.173.847-.146 1.618-.085 2.312.183.705.283 1.29.759 1.755 1.429.424.61.666 1.258.724 1.946.054.712-.144 1.444-.592 2.197-.453.777-1.238 1.553-2.355 2.328l-4.044 2.805-.823-1.183 4-2.774c1.132-.785 1.781-1.534 1.949-2.245a2.383 2.383 0 00-.392-1.945c-.465-.669-1.098-1.024-1.899-1.064-.8-.04-1.67.265-2.608.916-.894.62-1.521 1.353-1.882 2.199-.366.871-.429 1.796-.189 2.777l-1.118-.846c-.24-.98-.148-1.959.276-2.937.41-.967 1.173-1.838 2.29-2.613zm-32.199 15.866c1.132-.488 2.267-.672 3.406-.552 1.145.138 2.205.578 3.178 1.323.964.767 1.756 1.867 2.374 3.297.618 1.43.873 2.75.764 3.961-.101 1.228-.498 2.297-1.191 3.207-.693.911-1.614 1.613-2.762 2.109-1.249.538-2.487.737-3.713.595a6.43 6.43 0 01-3.361-1.332c-.998-.754-1.78-1.787-2.348-3.101-.575-1.331-.795-2.617-.661-3.859a6.662 6.662 0 011.334-3.357c.738-.989 1.731-1.752 2.98-2.291zm4.729-7.633l7.753 17.934-1.698.733-1.704-3.941-.957-2.695-1.393-2.536-3.774-8.731 1.773-.764zm-3.925 9.151c-.932.402-1.675.969-2.228 1.7a5.195 5.195 0 00-.971 2.55c-.095.968.076 1.96.515 2.974.438 1.014 1.039 1.811 1.803 2.389a5.199 5.199 0 002.524 1.042c.92.116 1.846-.026 2.778-.428.932-.403 1.679-.981 2.242-1.737a5.191 5.191 0 00.971-2.55c.086-.944-.091-1.924-.529-2.938-.439-1.014-1.035-1.823-1.789-2.425a5.209 5.209 0 00-2.524-1.042c-.929-.092-1.86.062-2.792.465zm-30.241 6.593l3.631 13.795-1.868.491-3.63-13.796 1.867-.49zm10.007 6.924c-1.741.438-3.167.401-4.277-.113-1.11-.514-1.852-1.48-2.225-2.899-.388-1.472-.194-2.731.581-3.777.775-1.046 2.076-1.8 3.905-2.261l5.478-1.411 3.631 13.796-1.868.49-1.265-4.809-3.96.984zm-1.511-7.666c-1.303.323-2.209.833-2.72 1.529-.523.718-.649 1.594-.377 2.627.272 1.034.795 1.702 1.568 2.005.778.32 1.827.316 3.147-.012l3.486-.859-1.618-6.149-3.486.859zm-21.563 1.385l1.319 14.203-1.923.179-.583-6.277-8.965.831.583 6.277-1.923.178-1.319-14.203 1.923-.178.583 6.276 8.965-.831-.583-6.277 1.923-.178zm-34.601-.55l5.485 7.371-1.654.863-6.112-8.357 2.281.123zm10.457.565l-.771 14.243-1.928-.104.771-14.243 1.928.104zm-1.675 6.277l-.089 1.655-4.59-.248.089-1.655 4.59.248zm-5.055.298l1.778.368-6.059 6.747-2.091-.113 6.372-7.002zm-19.958-10.644c1.463.267 2.691.805 3.687 1.612a6.94 6.94 0 012.13 3.013c.426 1.201.511 2.497.257 3.886-.255 1.39-.774 2.566-1.558 3.527a6.771 6.771 0 01-2.922 2.063c-1.166.432-2.401.528-3.703.291-1.32-.241-2.433-.758-3.339-1.549-.927-.777-1.585-1.763-1.975-2.957-.393-1.177-.46-2.469-.203-3.876.017-.089.043-.186.081-.289l.054-.294 12.228 2.233-.26 1.416-11.211-2.047.852-.425c-.186 1.016-.128 1.956.175 2.822.281.88.756 1.611 1.423 2.193.668.582 1.492.963 2.474 1.142.963.176 1.869.111 2.717-.194a4.72 4.72 0 002.135-1.543c.575-.724.957-1.602 1.146-2.636l.054-.294c.196-1.069.137-2.056-.177-2.96a5.272 5.272 0 00-1.633-2.259c-.774-.602-1.706-1.002-2.794-1.201a6.256 6.256 0 00-2.464.02 5.043 5.043 0 00-2.181 1.037l-.846-1.424a6.105 6.105 0 012.668-1.281c.999-.223 2.061-.231 3.185-.026z" fill="#FF170A"/><path d="M114.429 321.723l-9.654 23.532-1.661-.68 9.654-23.532 1.661.68z" fill="#000"/><path d="M83.498 311.811l.321 1.207-4.78-2.868.897-1.491 10.212 6.128-.896 1.491-5.246-3.148 1.217-.284-8.936 14.859-.27-1.239 4.943 2.966-.896 1.49-5.923-3.553 9.357-15.558zm-16.592-14.812a13.15 13.15 0 011.997 2.023c.56.717 1.018 1.444 1.374 2.182.33.739.55 1.458.657 2.155l-1.72.594c-.124-.876-.468-1.814-1.03-2.814-.588-.997-1.4-1.921-2.438-2.772-.883-.723-1.728-1.194-2.536-1.41-.807-.217-1.542-.222-2.205-.015-.674.221-1.252.625-1.735 1.213-.483.588-.755 1.233-.815 1.933-.085.704.133 1.48.655 2.33.497.852 1.383 1.801 2.658 2.846l3.47 2.845-6.835 6.734-8.327-6.826 1.105-1.344 7.716 6.326-1.382.097 5.725-5.64.115 1.359-2.986-2.448c-1.514-1.241-2.57-2.424-3.171-3.549-.612-1.111-.857-2.155-.734-3.132.108-.989.514-1.91 1.215-2.764a5.607 5.607 0 012.456-1.748c.945-.35 1.998-.389 3.159-.117 1.146.26 2.35.907 3.612 1.942zm-18.15-19.859l-1.392.911a2.01 2.01 0 01-.153-.328 2.231 2.231 0 00-.18-.274c-.356-.458-.812-.689-1.367-.693-.566-.019-1.19.123-1.875.426-.683.302-1.405.703-2.165 1.202-.774.511-1.543 1.028-2.306 1.553l-4.163 2.929-6.435-8.252 11.266-8.766 1.187 1.522-10.387 8.081.15-.737 4.78 6.131-.756.003 3.396-2.366a42.27 42.27 0 012.973-1.935c.965-.59 1.873-1.032 2.724-1.327.84-.309 1.603-.42 2.29-.335.673.096 1.243.445 1.711 1.045.134.171.259.361.375.569.105.194.214.408.327.641zM32.09 251.094c.747 1.284 1.136 2.566 1.168 3.847a6.931 6.931 0 01-.91 3.575c-.637 1.103-1.567 2.01-2.79 2.719-1.224.71-2.456 1.079-3.697 1.108a6.779 6.779 0 01-3.468-.879c-1.086-.605-1.962-1.48-2.627-2.623-.674-1.159-1.004-2.34-.99-3.542-.01-1.209.312-2.349.968-3.421.64-1.062 1.58-1.953 2.819-2.672.078-.045.169-.087.272-.126l.259-.15 6.243 10.736-1.246.724-5.725-9.844.877.371c-.894.518-1.572 1.174-2.034 1.965a4.779 4.779 0 00-.745 2.506c-.01.886.236 1.759.737 2.62.492.846 1.13 1.492 1.913 1.938a4.737 4.737 0 002.562.619c.924-.033 1.841-.314 2.75-.842l.26-.15c.94-.546 1.653-1.232 2.137-2.057.46-.832.68-1.735.66-2.708-.046-.979-.346-1.946-.902-2.902a6.255 6.255 0 00-1.616-1.859 5.047 5.047 0 00-2.206-.982l.535-1.567c.977.166 1.88.564 2.708 1.194.818.614 1.515 1.415 2.088 2.402zm-7.504-17.165l-12.131 4.966.292-.648 2.238 5.455-1.56.639-4.838-11.791 1.56-.639 2.24 5.456-.665-.257 12.132-4.966.732 1.785zm-7.098-25.618L3.515 211.25l-.398-1.887 6.175-1.299-1.856-8.8-6.175 1.299-.398-1.888 13.974-2.94.398 1.888-6.175 1.299 1.855 8.8 6.175-1.299.398 1.888zm-3.323-32.342l-3.149.195-.51.113-5.267.325c-1.213.075-2.124.476-2.733 1.203-.61.709-.874 1.733-.791 3.071.057.922.265 1.789.624 2.602.36.812.81 1.492 1.353 2.039l-1.385.957c-.66-.685-1.185-1.524-1.573-2.516a9.898 9.898 0 01-.714-3.168c-.114-1.844.26-3.292 1.121-4.343.842-1.069 2.196-1.66 4.06-1.775l8.85-.547.114 1.844zm.44 4.9c.066 1.067-.048 2.009-.343 2.825-.314.8-.766 1.427-1.355 1.881-.608.454-1.32.707-2.134.757-.742.046-1.422-.084-2.04-.391-.638-.323-1.163-.872-1.574-1.645-.43-.79-.687-1.863-.771-3.219l-.304-4.908 1.439-.089.3 4.854c.085 1.374.389 2.317.911 2.829a2.39 2.39 0 001.868.674c.814-.05 1.446-.406 1.896-1.069.45-.663.639-1.564.568-2.703-.067-1.085-.369-2.001-.906-2.748-.556-.764-1.315-1.298-2.279-1.602l1.303-.516c.964.304 1.754.89 2.371 1.76.616.851.966 1.954 1.05 3.31zm3.065-36.15c-.17 1.22-.603 2.284-1.297 3.193-.713.907-1.64 1.582-2.783 2.027-1.158.423-2.509.528-4.053.312-1.545-.215-2.807-.683-3.786-1.405-.997-.725-1.706-1.619-2.124-2.683-.42-1.064-.542-2.215-.37-3.453.189-1.346.662-2.505 1.42-3.478a6.421 6.421 0 012.886-2.177c1.163-.459 2.454-.59 3.873-.393 1.436.201 2.65.681 3.643 1.441a6.652 6.652 0 012.18 2.883c.462 1.143.6 2.388.411 3.733zm4.073 8.002l-19.37-2.7.256-1.83 4.257.593 2.802.583 2.893.129 9.429 1.315-.267 1.91zm-5.789-8.104c.14-1.005.041-1.933-.297-2.785a5.2 5.2 0 00-1.677-2.154c-.779-.584-1.716-.952-2.811-1.105-1.096-.153-2.09-.054-2.98.298a5.198 5.198 0 00-2.203 1.613c-.578.724-.937 1.589-1.077 2.593-.14 1.005-.033 1.943.32 2.816a5.2 5.2 0 001.677 2.154c.764.563 1.693.921 2.789 1.074 1.095.153 2.096.064 3.003-.267a5.198 5.198 0 002.203-1.613c.562-.745.913-1.619 1.053-2.624zm9.998-29.397l-13.695-4.043.547-1.85L26.5 113.37l-.547 1.85zm-11.113 4.964c.527-1.715 1.297-2.913 2.312-3.596 1.015-.682 2.227-.816 3.636-.4 1.46.431 2.438 1.249 2.933 2.453.495 1.203.466 2.706-.086 4.507l-1.63 5.412-13.694-4.043.547-1.85 4.774 1.41 1.208-3.893zm7.348 2.679c.398-1.28.43-2.319.1-3.116-.345-.819-1.03-1.38-2.055-1.683-1.026-.303-1.87-.202-2.53.302-.676.499-1.216 1.397-1.619 2.695l-1.07 3.424 6.104 1.802 1.07-3.424zm9.833-18.876l-12.845-6.233.844-1.736 5.676 2.755 3.934-8.089-5.676-2.755.844-1.735 12.845 6.234-.844 1.735-5.676-2.755-3.935 8.09 5.676 2.754-.844 1.735zM49.857 75.41l-9.15.892.112-1.86 10.32-.92-1.282 1.889zm-5.878 8.658L32.16 76.06l1.084-1.597 11.818 8.007-1.084 1.597zm-4.52-4.67l-1.373-.931 2.58-3.8 1.374.93-2.58 3.8zm2.352-4.481l-1.233 1.332-2.661-8.665 1.175-1.732 2.72 9.065zM61.13 63.366c-.985 1.113-2.08 1.886-3.287 2.32a6.955 6.955 0 01-3.684.266c-1.249-.256-2.404-.852-3.463-1.788-1.06-.935-1.8-1.987-2.22-3.154a6.763 6.763 0 01-.258-3.564c.232-1.221.787-2.327 1.663-3.318.889-1.004 1.906-1.69 3.053-2.055 1.144-.392 2.33-.446 3.555-.162 1.211.271 2.354.88 3.427 1.828.068.06.137.133.207.219l.224.197-8.23 9.306-1.08-.954 7.545-8.531-.076.948c-.775-.684-1.611-1.12-2.51-1.308a4.79 4.79 0 00-2.615.084c-.844.27-1.596.78-2.256 1.526-.649.733-1.061 1.54-1.238 2.425a4.717 4.717 0 00.22 2.623c.324.865.88 1.646 1.668 2.341l.224.198c.816.72 1.692 1.18 2.63 1.378a5.29 5.29 0 002.78-.23c.915-.352 1.74-.941 2.472-1.77a6.251 6.251 0 001.256-2.117 5.026 5.026 0 00.237-2.402l1.658.013c.15.979.057 1.96-.28 2.943-.326.97-.866 1.882-1.623 2.738z" fill="#FF170A"/><path d="M85.861 49.22l-15.2-20.4 1.44-1.07 15.2 20.4-1.44 1.07z" fill="#000"/><path d="M109.633 28.07l-1.203-.342 4.912-2.636.824 1.532-10.495 5.632-.824-1.532 5.392-2.893-.379 1.19-8.213-15.27 1.204.402-5.08 2.726-.824-1.531 6.087-3.267 8.599 15.989zm21.064-6.641a13.14 13.14 0 01-2.764.671c-.904.112-1.764.13-2.58.057a8.468 8.468 0 01-2.189-.544l.374-1.779c.816.343 1.798.53 2.946.562 1.159.009 2.37-.213 3.633-.665 1.076-.385 1.914-.867 2.515-1.448.601-.58.983-1.207 1.145-1.881.157-.691.107-1.395-.15-2.111-.257-.716-.671-1.28-1.242-1.691-.56-.435-1.339-.647-2.337-.636-.987-.013-2.257.259-3.81.815l-4.226 1.511-2.272-9.317 10.141-3.628.587 1.637-9.398 3.363.626-1.234 1.903 7.804-1.226-.6 3.636-1.301c1.844-.66 3.403-.958 4.678-.895 1.268.046 2.291.373 3.067.98.794.602 1.377 1.422 1.75 2.463a5.6 5.6 0 01.239 3.002c-.185.99-.692 1.912-1.522 2.767-.813.849-1.987 1.548-3.524 2.098zm27.177-5.59l-.063-1.662c.129.003.249.016.361.039a2.32 2.32 0 00.328-.012c.576-.069 1.009-.34 1.299-.813.308-.474.509-1.082.603-1.823.093-.741.122-1.566.086-2.473-.038-.926-.085-1.85-.141-2.775l-.364-5.073L170.381 0l1.702 14.162-1.918.23-1.569-13.056.555.508-7.724.926.387-.648.277 4.126c.093 1.23.135 2.41.125 3.543.008 1.13-.082 2.135-.268 3.014-.169.878-.467 1.589-.895 2.133-.43.526-1.023.834-1.779.925a4.46 4.46 0 01-.681.027c-.221-.01-.46-.027-.719-.051zm31.359-.799c-1.487-.03-2.786-.362-3.898-1a6.936 6.936 0 01-2.588-2.631c-.614-1.117-.907-2.382-.879-3.795.027-1.412.35-2.656.97-3.731a6.767 6.767 0 012.551-2.505c1.082-.613 2.285-.907 3.608-.882 1.342.026 2.523.357 3.545.993 1.04.617 1.848 1.485 2.425 2.6.578 1.099.852 2.363.825 3.794-.002.09-.013.19-.033.298l-.006.299-12.428-.24.028-1.44 11.394.22-.772.556c.02-1.032-.189-1.951-.627-2.757a4.776 4.776 0 00-1.758-1.936c-.753-.467-1.628-.71-2.625-.73-.979-.019-1.863.19-2.651.629a4.728 4.728 0 00-1.859 1.866c-.451.807-.686 1.735-.707 2.785l-.005.3c-.021 1.086.196 2.05.651 2.892a5.283 5.283 0 001.975 1.968c.862.47 1.845.715 2.951.736a6.268 6.268 0 002.43-.415 5.037 5.037 0 001.985-1.375l1.064 1.27a6.11 6.11 0 01-2.427 1.693c-.951.38-1.997.56-3.139.537zm18.559 2.406l2.012-12.94.404.585-5.833-.905.259-1.665 12.606 1.955-.259 1.665-5.832-.905.563-.435-2.011 12.941-1.909-.296zm25.811 7.184l4.714-13.465 1.823.637-2.083 5.95 8.499 2.969 2.083-5.95 1.823.637-4.714 13.464-1.823-.637 2.083-5.95-8.499-2.968-2.083 5.95-1.823-.637zm29.341 13.82l1.463-2.793.167-.495 2.446-4.67c.563-1.076.69-2.062.382-2.959-.292-.888-1.032-1.643-2.221-2.265a7.562 7.562 0 00-2.553-.812c-.882-.113-1.697-.08-2.447.101l-.103-1.678c.929-.21 1.918-.225 2.969-.044a9.926 9.926 0 013.084 1.029c1.639.856 2.686 1.925 3.141 3.205.48 1.273.287 2.735-.579 4.389l-4.11 7.848-1.639-.856zm-4.425-2.16c-.948-.494-1.696-1.08-2.243-1.754-.523-.681-.827-1.392-.91-2.13-.076-.756.076-1.494.454-2.216a3.95 3.95 0 011.391-1.543c.607-.377 1.348-.542 2.223-.494.9.04 1.952.376 3.157 1.006l4.363 2.279-.669 1.276-4.314-2.254c-1.221-.638-2.186-.866-2.895-.685a2.389 2.389 0 00-1.544 1.248c-.378.722-.399 1.447-.064 2.174.336.727 1.009 1.355 2.022 1.884.964.504 1.905.72 2.823.647.942-.08 1.792-.453 2.551-1.12l-.232 1.381c-.759.667-1.67 1.04-2.734 1.117-1.048.086-2.174-.185-3.379-.815zm28.774 20.808c-.959-.775-1.65-1.693-2.072-2.756-.411-1.077-.512-2.22-.305-3.426.233-1.21.84-2.42 1.82-3.631.981-1.212 2.033-2.05 3.157-2.517 1.135-.48 2.267-.626 3.396-.437 1.129.19 2.18.678 3.153 1.464 1.058.854 1.809 1.856 2.253 3.007a6.41 6.41 0 01.381 3.592c-.205 1.232-.758 2.405-1.658 3.517-.912 1.127-1.95 1.92-3.114 2.377a6.668 6.668 0 01-3.596.38c-1.219-.192-2.358-.716-3.415-1.57zm-8.965-.637l12.297-15.19 1.438 1.161-2.702 3.339-1.944 2.098-1.601 2.41-5.986 7.395-1.502-1.213zm9.936-.78c.79.638 1.638 1.032 2.543 1.18a5.204 5.204 0 002.712-.325c.902-.366 1.701-.978 2.397-1.837.695-.86 1.122-1.761 1.28-2.705a5.186 5.186 0 00-.249-2.717c-.324-.867-.881-1.62-1.671-2.258-.789-.638-1.65-1.03-2.581-1.176a5.206 5.206 0 00-2.712.325c-.877.364-1.663.975-2.358 1.834-.696.86-1.135 1.762-1.319 2.709a5.197 5.197 0 00.25 2.717c.349.864.919 1.616 1.708 2.253zm19.938 23.399l10.493-9.675 1.31 1.417-10.493 9.675-1.31-1.417zm1.427-12.076c1.204 1.33 1.84 2.605 1.907 3.826.066 1.22-.44 2.328-1.519 3.323-1.12 1.032-2.324 1.452-3.612 1.26-1.288-.193-2.565-.987-3.831-2.384l-3.818-4.17 10.493-9.676 1.31 1.417-3.657 3.373 2.727 3.031zm-6.068 4.93c.897.997 1.772 1.558 2.627 1.682.881.125 1.714-.175 2.5-.9.786-.725 1.132-1.5 1.036-2.324-.082-.836-.577-1.76-1.486-2.77l-2.396-2.672-4.677 4.312 2.396 2.672zm11.399 18.285l11.935-7.833 1.06 1.612-5.274 3.462 4.945 7.515 5.273-3.461 1.061 1.612-11.935 7.833-1.06-1.612 5.274-3.462-4.944-7.515-5.274 3.461-1.061-1.612zm15.844 30.832l3.949-8.294 1.538 1.055-4.527 9.31-.96-2.071zm-4.4-9.492l12.958-5.994.811 1.75-12.958 5.994-.811-1.75zm6.335-1.464l1.506-.696 1.932 4.166-1.506.697-1.932-4.167zm2.633 4.321l-.507-1.741 8.806 2.184.88 1.899-9.179-2.342zm-.152 22.243c-.448-1.416-.548-2.752-.299-4.009a6.934 6.934 0 011.669-3.291c.863-.937 1.969-1.619 3.318-2.045 1.348-.426 2.631-.518 3.849-.276a6.782 6.782 0 013.192 1.614c.928.827 1.592 1.872 1.991 3.132.404 1.278.469 2.502.192 3.672-.253 1.182-.817 2.225-1.691 3.128-.857.898-1.969 1.562-3.335 1.993a1.797 1.797 0 01-.293.065l-.285.09-3.748-11.839 1.374-.434 3.437 10.854-.775-.553c.986-.311 1.791-.803 2.415-1.475a4.777 4.777 0 001.274-2.283c.202-.862.153-1.768-.147-2.718-.296-.933-.777-1.702-1.444-2.308a4.724 4.724 0 00-2.365-1.162c-.909-.169-1.865-.095-2.868.222l-.285.09c-1.038.328-1.883.842-2.536 1.542a5.276 5.276 0 00-1.235 2.498c-.17.966-.088 1.975.246 3.029a6.223 6.223 0 001.171 2.166 5.02 5.02 0 001.939 1.439l-.865 1.413a6.104 6.104 0 01-2.382-1.755c-.665-.778-1.169-1.711-1.514-2.799z" fill="#FF170A"/><path d="M334.489 164.456l25.331-2.545.18 1.784-25.332 2.545-.179-1.784z" fill="#000"/></svg>