<svg display="none" xmlns="http://www.w3.org/2000/svg">
  <symbol id="header-phone" viewBox="0 0 16 17">
    <g>
      <path d="M15.651,15.927 L15.648,15.928 C15.649,15.929 14.026,16.624 14.026,16.624 L10.628,12.446 L12.249,11.748 C12.601,11.599 13.053,11.679 13.262,11.936 C13.263,11.937 15.910,15.184 15.910,15.184 L15.909,15.187 C16.109,15.434 16.023,15.767 15.651,15.927 ZM2.812,11.143 C-1.960,5.112 0.590,2.450 1.491,1.959 L4.969,6.228 C4.131,6.588 4.534,7.398 5.032,8.191 C5.040,8.228 7.450,11.178 7.471,11.189 C8.717,12.416 9.392,12.981 10.193,12.638 L13.583,16.805 C12.624,17.235 7.840,17.499 2.812,11.143 ZM7.035,5.340 L7.034,5.343 C7.033,5.344 5.412,6.038 5.412,6.038 L1.938,1.767 L3.560,1.069 C3.910,0.920 4.363,0.999 4.572,1.258 C4.573,1.258 7.296,4.599 7.296,4.599 L7.295,4.603 C7.494,4.848 7.407,5.180 7.035,5.340 Z" />
    </g>
  </symbol>

  <symbol id="intro-phone" viewBox="0 0 18 21">
    <g>
      <path d="M15.919,17.704 L15.915,17.705 C15.916,17.707 14.120,18.438 14.120,18.438 L11.764,14.042 L13.560,13.308 C13.949,13.151 14.380,13.236 14.525,13.506 C14.527,13.508 16.363,16.923 16.363,16.923 L16.362,16.925 C16.499,17.186 16.330,17.536 15.919,17.704 ZM4.274,12.672 C1.006,6.327 4.221,3.527 5.244,3.011 L7.657,7.501 C6.729,7.880 6.929,8.732 7.230,9.566 C7.228,9.606 8.903,12.709 8.921,12.720 C9.861,14.011 10.395,14.605 11.282,14.244 L13.632,18.628 C12.565,19.081 7.715,19.359 4.274,12.672 ZM9.944,6.568 L9.942,6.570 C9.942,6.572 8.148,7.301 8.148,7.301 L5.739,2.809 L7.535,2.074 C7.922,1.918 8.355,2.001 8.500,2.273 C8.501,2.273 10.391,5.788 10.391,5.788 L10.389,5.791 C10.526,6.050 10.356,6.399 9.944,6.568 Z" />
    </g>
  </symbol>

  <symbol id="icon-phone" viewBox="0 0 20 20">
    <g>
      <path d="M9.999,19.989 C4.476,19.989 -0.001,15.511 -0.001,9.989 C-0.001,4.466 4.476,-0.012 9.999,-0.012 C15.522,-0.012 19.999,4.466 19.999,9.989 C19.999,15.511 15.522,19.989 9.999,19.989 ZM9.919,1.932 C5.458,1.932 1.842,5.548 1.842,10.010 C1.842,14.470 5.458,18.087 9.919,18.087 C14.379,18.087 17.996,14.470 17.996,10.010 C17.996,5.548 14.379,1.932 9.919,1.932 ZM13.457,13.810 L13.456,13.810 C13.456,13.811 12.808,14.193 12.808,14.193 L11.449,11.896 L12.097,11.512 C12.238,11.430 12.418,11.474 12.502,11.615 C12.503,11.617 13.561,13.401 13.561,13.401 L13.560,13.403 C13.640,13.539 13.606,13.722 13.457,13.810 ZM8.324,11.179 C6.416,7.864 7.436,6.400 7.796,6.131 L9.187,8.477 C8.852,8.675 9.012,9.121 9.212,9.556 C9.215,9.577 10.178,11.199 10.187,11.205 C10.685,11.880 10.955,12.190 11.275,12.001 L12.630,14.292 C12.247,14.529 10.334,14.674 8.324,11.179 ZM10.012,7.989 L10.012,7.991 C10.012,7.992 9.364,8.373 9.364,8.373 L7.975,6.025 L8.623,5.641 C8.763,5.559 8.944,5.603 9.028,5.745 C9.028,5.745 10.117,7.582 10.117,7.582 L10.116,7.584 C10.196,7.719 10.161,7.901 10.012,7.989 Z" />
    </g>
  </symbol>

  <symbol id="icon-email" viewBox="0 0 15 11">
    <g>
      <path d="M0.794,10.758 L14.325,10.758 C14.362,10.758 14.398,10.750 14.430,10.735 L9.794,6.388 L7.559,9.093 L5.325,6.388 L0.689,10.735 C0.721,10.750 0.757,10.758 0.794,10.758 ZM0.547,10.383 L4.580,5.486 L0.547,0.604 L0.547,10.383 ZM0.869,0.240 L0.985,0.328 L7.559,7.340 L14.134,0.328 L14.250,0.240 L0.869,0.240 ZM14.572,0.604 L10.539,5.486 L14.572,10.383 L14.572,0.604 Z" />
    </g>
  </symbol>

  <symbol id="icon-schedule" viewBox="0 0 20 20">
    <g>
      <path d="M9.999,19.989 C4.476,19.989 -0.001,15.511 -0.001,9.989 C-0.001,4.466 4.476,-0.012 9.999,-0.012 C15.522,-0.012 19.999,4.466 19.999,9.989 C19.999,15.511 15.522,19.989 9.999,19.989 ZM9.919,1.933 C5.458,1.933 1.842,5.548 1.842,10.009 C1.842,14.470 5.458,18.087 9.919,18.087 C14.379,18.087 17.996,14.470 17.996,10.009 C17.996,5.548 14.379,1.933 9.919,1.933 ZM12.253,11.997 L9.199,11.997 C8.779,11.997 8.438,11.655 8.438,11.235 L8.438,6.603 C8.438,6.183 8.779,5.841 9.199,5.841 C9.620,5.841 9.961,6.183 9.961,6.603 L9.961,10.474 L12.253,10.474 C12.673,10.474 13.014,10.815 13.014,11.235 C13.014,11.655 12.673,11.997 12.253,11.997 Z" />
    </g>
  </symbol>

  <symbol id="icon-vk" viewBox="0 0 25 24">
    <g>
      <path d="M21.171,24.000 L3.024,24.000 C1.354,24.000 -0.000,22.656 -0.000,20.999 L-0.000,2.999 C-0.000,1.342 1.354,-0.001 3.024,-0.001 L21.171,-0.001 C22.841,-0.001 24.195,1.342 24.195,2.999 L24.195,20.999 C24.195,22.656 22.841,24.000 21.171,24.000 ZM16.052,12.299 C15.668,11.882 15.108,11.605 14.506,11.470 L14.506,11.414 C14.936,11.228 15.311,10.936 15.563,10.539 C15.815,10.142 15.947,9.690 15.947,9.182 C15.947,8.742 15.860,8.356 15.677,8.019 C15.494,7.683 15.220,7.415 14.850,7.214 C14.508,7.028 14.143,6.900 13.752,6.842 C13.362,6.784 12.788,6.748 12.030,6.748 L8.317,6.748 L8.317,17.249 L12.516,17.249 C13.232,17.249 13.822,17.149 14.287,17.018 C14.752,16.888 15.178,16.652 15.566,16.344 C15.894,16.087 16.155,15.754 16.350,15.363 C16.544,14.970 16.634,14.511 16.634,13.994 C16.634,13.284 16.435,12.717 16.052,12.299 ZM13.292,15.068 C13.024,15.184 12.761,15.282 12.502,15.290 C12.243,15.301 11.776,15.340 11.101,15.340 L10.896,15.340 L10.896,12.649 L11.441,12.649 C11.903,12.649 12.272,12.658 12.547,12.665 C12.822,12.672 13.038,12.708 13.195,12.769 C13.454,12.863 13.648,13.001 13.777,13.183 C13.907,13.365 13.972,13.618 13.972,13.939 C13.972,14.192 13.917,14.417 13.809,14.615 C13.700,14.814 13.528,14.965 13.292,15.068 ZM12.772,10.714 C12.583,10.803 12.399,10.871 12.221,10.880 C12.043,10.890 11.732,10.914 11.289,10.914 L10.896,10.914 L10.896,8.658 L11.143,8.658 C11.605,8.658 11.953,8.668 12.186,8.674 C12.420,8.681 12.622,8.726 12.793,8.800 C12.973,8.880 13.106,9.009 13.192,9.187 C13.277,9.364 13.320,9.538 13.320,9.705 C13.320,9.934 13.281,10.135 13.202,10.307 C13.123,10.480 12.980,10.616 12.772,10.714 Z" />
    </g>
  </symbol>

  <symbol id="icon-instagram" viewBox="0 0 24 24">
    <g>
      <path d="M21.230,10.151 L19.140,10.151 C19.293,10.742 19.382,11.360 19.382,11.998 C19.382,16.077 16.076,19.384 11.998,19.384 C7.920,19.384 4.613,16.077 4.613,11.998 C4.613,11.360 4.704,10.742 4.856,10.151 L2.766,10.151 L2.766,20.307 C2.766,20.815 3.180,21.229 3.690,21.229 L20.306,21.229 C20.816,21.229 21.230,20.815 21.230,20.307 L21.230,10.151 ZM21.230,3.689 C21.230,3.180 20.816,2.766 20.306,2.766 L17.537,2.766 C17.027,2.766 16.614,3.180 16.614,3.689 L16.614,6.460 C16.614,6.969 17.027,7.383 17.537,7.383 L20.306,7.383 C20.816,7.383 21.230,6.969 21.230,6.460 L21.230,3.689 ZM11.998,7.383 C9.449,7.383 7.382,9.448 7.382,11.998 C7.382,14.547 9.449,16.614 11.998,16.614 C14.547,16.614 16.614,14.547 16.614,11.998 C16.614,9.448 14.547,7.383 11.998,7.383 M21.230,23.999 L2.766,23.999 C1.237,23.999 -0.003,22.759 -0.003,21.229 L-0.003,2.766 C-0.003,1.237 1.237,-0.002 2.766,-0.002 L21.230,-0.002 C22.759,-0.002 23.999,1.237 23.999,2.766 L23.999,21.229 C23.999,22.759 22.759,23.999 21.230,23.999 " />
    </g>
  </symbol>

  <symbol id="icon-ok" viewBox="0 0 25 24">
    <g>
      <path d="M21.170,24.000 L3.024,24.000 C1.354,24.000 -0.000,22.656 -0.000,20.999 L-0.000,2.999 C-0.000,1.342 1.354,-0.001 3.024,-0.001 L21.170,-0.001 C22.841,-0.001 24.195,1.342 24.195,2.999 L24.195,20.999 C24.195,22.656 22.841,24.000 21.170,24.000 ZM11.999,4.999 C10.034,4.999 8.435,6.620 8.435,8.613 C8.435,10.604 10.034,12.225 11.999,12.225 C13.965,12.225 15.564,10.604 15.564,8.613 C15.564,6.620 13.965,4.999 11.999,4.999 ZM15.839,12.844 C15.531,12.348 14.887,12.198 14.399,12.510 C12.939,13.441 11.059,13.441 9.600,12.510 C9.111,12.198 8.467,12.348 8.160,12.844 C7.853,13.338 8.000,13.991 8.487,14.303 C9.132,14.713 9.831,15.004 10.557,15.172 L8.564,17.192 C8.157,17.605 8.157,18.275 8.565,18.689 C8.769,18.895 9.036,18.998 9.303,18.998 C9.570,18.998 9.838,18.895 10.042,18.689 L11.999,16.704 L13.958,18.689 C14.365,19.103 15.026,19.103 15.434,18.689 C15.842,18.275 15.842,17.605 15.434,17.192 L13.441,15.172 C14.167,15.004 14.867,14.713 15.511,14.303 C15.999,13.991 16.146,13.338 15.839,12.844 ZM11.999,10.108 C11.186,10.108 10.524,9.437 10.524,8.613 C10.524,7.787 11.186,7.116 11.999,7.116 C12.813,7.116 13.475,7.787 13.475,8.613 C13.475,9.437 12.813,10.108 11.999,10.108 Z" />
    </g>
  </symbol>

  <symbol id="icon-youtube" viewBox="0 0 20 24">
    <g>
      <path d="M19.653,21.093 C19.413,22.116 18.558,22.869 17.529,22.981 C15.091,23.248 12.624,23.249 10.168,23.248 C7.712,23.249 5.244,23.248 2.807,22.981 C1.778,22.869 0.923,22.116 0.683,21.093 C0.340,19.637 0.340,18.048 0.340,16.549 C0.340,15.050 0.344,13.462 0.686,12.005 C0.927,10.983 1.782,10.229 2.811,10.117 C5.248,9.851 7.715,9.850 10.172,9.851 C12.628,9.850 15.095,9.851 17.533,10.117 C18.561,10.229 19.417,10.983 19.657,12.005 C19.999,13.462 19.998,15.050 19.998,16.549 C19.998,18.048 19.996,19.637 19.653,21.093 ZM5.947,12.104 L1.806,12.104 L1.806,13.315 L3.203,13.315 L3.203,20.708 L4.524,20.708 L4.524,13.315 L5.947,13.315 L5.947,12.104 ZM9.536,14.297 L8.348,14.297 L8.348,19.196 C8.084,19.561 7.835,19.741 7.596,19.741 C7.438,19.741 7.348,19.649 7.319,19.468 C7.308,19.430 7.308,19.288 7.308,19.017 L7.308,14.297 L6.120,14.297 L6.120,19.366 C6.120,19.818 6.160,20.125 6.225,20.319 C6.344,20.644 6.608,20.796 6.990,20.796 C7.427,20.796 7.875,20.538 8.348,20.008 L8.348,20.708 L9.536,20.708 L9.536,14.297 ZM14.049,16.231 C14.049,15.624 14.009,15.200 13.930,14.942 C13.771,14.463 13.453,14.219 12.980,14.219 C12.543,14.219 12.136,14.453 11.752,14.914 L11.752,12.104 L10.565,12.104 L10.565,20.708 L11.752,20.708 L11.752,20.086 C12.149,20.566 12.558,20.796 12.980,20.796 C13.453,20.796 13.771,20.552 13.930,20.075 C14.009,19.804 14.049,19.377 14.049,18.783 L14.049,16.231 ZM18.533,18.487 L17.321,18.487 C17.321,18.952 17.305,19.211 17.294,19.274 C17.227,19.584 17.056,19.741 16.764,19.741 C16.356,19.741 16.157,19.444 16.157,18.851 L16.157,17.714 L18.533,17.714 L18.533,16.387 C18.533,15.701 18.414,15.200 18.165,14.876 C17.832,14.437 17.359,14.219 16.764,14.219 C16.157,14.219 15.684,14.437 15.341,14.876 C15.089,15.200 14.974,15.701 14.974,16.387 L14.974,18.632 C14.974,19.312 15.103,19.818 15.356,20.138 C15.699,20.577 16.172,20.796 16.793,20.796 C17.414,20.796 17.901,20.566 18.230,20.101 C18.374,19.895 18.468,19.663 18.508,19.405 C18.518,19.288 18.533,19.031 18.533,18.657 L18.533,18.487 ZM16.157,16.154 C16.157,15.561 16.356,15.264 16.753,15.264 C17.146,15.264 17.345,15.561 17.345,16.154 L17.345,16.747 L16.157,16.747 L16.157,16.154 ZM12.344,19.741 C12.149,19.741 11.951,19.649 11.752,19.454 L11.752,15.547 C11.951,15.355 12.149,15.264 12.344,15.264 C12.687,15.264 12.861,15.561 12.861,16.140 L12.861,18.875 C12.861,19.454 12.687,19.741 12.344,19.741 ZM14.906,7.981 C14.428,8.517 13.972,8.777 13.535,8.777 C13.148,8.777 12.881,8.624 12.762,8.296 C12.696,8.100 12.656,7.790 12.656,7.333 L12.656,2.213 L13.852,2.213 L13.852,6.980 C13.852,7.255 13.852,7.399 13.866,7.437 C13.893,7.619 13.987,7.711 14.148,7.711 C14.387,7.711 14.639,7.530 14.906,7.162 L14.906,2.213 L16.106,2.213 L16.106,8.687 L14.906,8.687 L14.906,7.981 ZM9.896,8.777 C9.298,8.777 8.831,8.556 8.499,8.114 C8.243,7.790 8.123,7.279 8.123,6.592 L8.123,4.324 C8.123,3.632 8.243,3.126 8.499,2.798 C8.831,2.356 9.298,2.134 9.896,2.134 C10.497,2.134 10.963,2.356 11.296,2.798 C11.547,3.126 11.668,3.632 11.668,4.324 L11.668,6.592 C11.668,7.279 11.547,7.790 11.296,8.114 C10.963,8.556 10.497,8.777 9.896,8.777 ZM10.468,4.088 C10.468,3.490 10.282,3.191 9.896,3.191 C9.509,3.191 9.323,3.490 9.323,4.088 L9.323,6.813 C9.323,7.411 9.509,7.711 9.896,7.711 C10.282,7.711 10.468,7.411 10.468,6.813 L10.468,4.088 ZM6.511,8.687 L5.180,8.687 L5.180,5.169 C5.060,4.545 4.794,3.632 4.367,2.420 C4.087,1.613 3.794,0.804 3.514,-0.001 L4.914,-0.001 L5.859,3.411 L6.766,-0.001 L8.112,-0.001 L6.511,5.169 L6.511,8.687 Z" />
    </g>
  </symbol>

  <symbol id="menu-about" viewBox="0 0 18 18">
    <g>
      <path d="M1.481,-0.001 L9.426,-0.001 C10.238,-0.001 10.906,0.667 10.906,1.480 L10.906,5.268 L16.519,5.268 C17.332,5.268 18.000,5.936 18.000,6.749 L18.000,8.419 L18.000,9.268 L18.000,16.519 C18.000,17.331 17.332,17.999 16.519,17.999 L15.906,17.999 L14.906,17.999 L14.901,17.999 L14.901,16.999 L14.906,16.999 L14.906,14.498 C14.906,14.232 14.691,14.018 14.425,14.018 L13.388,14.018 C13.121,14.018 12.906,14.232 12.906,14.498 L12.906,17.999 L12.904,17.999 L11.906,17.999 L10.543,17.999 L10.543,17.996 L1.481,17.999 C0.668,17.999 -0.000,17.331 -0.000,16.519 L-0.000,1.480 C-0.000,0.667 0.668,-0.001 1.481,-0.001 L1.481,-0.001 ZM10.906,6.268 L10.906,6.937 L16.519,6.937 C16.687,6.937 16.849,6.966 17.000,7.018 L17.000,6.749 C17.000,6.483 16.785,6.268 16.519,6.268 L10.906,6.268 L10.906,6.268 ZM10.906,7.938 L10.906,16.999 L11.906,16.999 L11.906,14.498 C11.906,13.685 12.574,13.017 13.388,13.017 L14.425,13.017 C15.238,13.017 15.906,13.685 15.906,14.498 L15.906,16.999 L16.519,16.999 C16.785,16.999 17.000,16.784 17.000,16.519 L17.000,9.268 L17.000,8.419 C17.000,8.152 16.785,7.938 16.519,7.938 L10.906,7.938 L10.906,7.938 ZM2.808,2.268 L4.216,2.268 C4.652,2.268 5.012,2.616 5.012,3.036 L5.012,4.500 C5.012,4.920 4.652,5.268 4.216,5.268 L2.808,5.268 C2.372,5.268 2.012,4.920 2.012,4.500 L2.012,3.036 C2.012,2.616 2.372,2.268 2.808,2.268 L2.808,2.268 ZM6.796,10.269 L8.204,10.269 C8.640,10.269 9.000,10.615 9.000,11.036 L9.000,12.500 C9.000,12.921 8.640,13.268 8.204,13.268 L6.796,13.268 C6.360,13.268 6.000,12.921 6.000,12.500 L6.000,11.036 C6.000,10.615 6.360,10.269 6.796,10.269 L6.796,10.269 ZM7.800,11.426 L7.200,11.426 L7.200,12.110 L7.800,12.110 L7.800,11.426 L7.800,11.426 ZM2.808,10.269 L4.216,10.269 C4.652,10.269 5.012,10.615 5.012,11.036 L5.012,12.500 C5.012,12.921 4.652,13.268 4.216,13.268 L2.808,13.268 C2.372,13.268 2.012,12.921 2.012,12.500 L2.012,11.036 C2.012,10.615 2.372,10.269 2.808,10.269 L2.808,10.269 ZM3.812,11.426 L3.212,11.426 L3.212,12.110 L3.812,12.110 L3.812,11.426 L3.812,11.426 ZM2.808,6.268 L4.216,6.268 C4.652,6.268 5.012,6.616 5.012,7.036 L5.012,8.500 C5.012,8.920 4.652,9.268 4.216,9.268 L2.808,9.268 C2.372,9.268 2.012,8.920 2.012,8.500 L2.012,7.036 C2.012,6.616 2.372,6.268 2.808,6.268 L2.808,6.268 ZM3.812,7.426 L3.212,7.426 L3.212,8.110 L3.812,8.110 L3.812,7.426 L3.812,7.426 ZM6.796,6.268 L8.204,6.268 C8.640,6.268 9.000,6.616 9.000,7.036 L9.000,8.500 C9.000,8.920 8.640,9.268 8.204,9.268 L6.796,9.268 C6.360,9.268 6.000,8.920 6.000,8.500 L6.000,7.036 C6.000,6.616 6.360,6.268 6.796,6.268 L6.796,6.268 ZM7.800,7.426 L7.200,7.426 L7.200,8.110 L7.800,8.110 L7.800,7.426 L7.800,7.426 ZM6.796,2.268 L8.204,2.268 C8.640,2.268 9.000,2.616 9.000,3.036 L9.000,4.500 C9.000,4.920 8.640,5.268 8.204,5.268 L6.796,5.268 C6.360,5.268 6.000,4.920 6.000,4.500 L6.000,3.036 C6.000,2.616 6.360,2.268 6.796,2.268 L6.796,2.268 ZM7.800,3.426 L7.200,3.426 L7.200,4.110 L7.800,4.110 L7.800,3.426 L7.800,3.426 ZM3.812,3.426 L3.212,3.426 L3.212,4.110 L3.812,4.110 L3.812,3.426 L3.812,3.426 ZM9.426,1.000 L1.481,1.000 C1.215,1.000 1.000,1.215 1.000,1.480 L1.000,16.519 C1.000,16.784 1.215,16.999 1.481,16.999 L9.426,16.999 C9.691,16.999 9.906,16.784 9.906,16.519 L9.906,1.480 C9.906,1.215 9.691,1.000 9.426,1.000 L9.426,1.000 Z" />
    </g>
  </symbol>

  <symbol id="menu-services" viewBox="0 0 19 16">
    <g>
      <path d="M18.650,7.032 C18.484,6.709 18.029,6.340 18.029,6.340 L16.148,1.424 L16.148,1.424 C15.758,0.493 14.609,0.002 14.109,0.002 L4.891,0.002 C4.390,0.002 3.242,0.493 2.852,1.424 L0.971,6.340 C0.971,6.340 0.516,6.709 0.349,7.032 C0.183,7.356 0.001,7.643 0.001,9.823 C0.001,11.948 0.437,12.705 0.959,12.966 L1.372,13.194 L1.372,15.167 C1.372,15.808 1.527,15.998 2.149,15.998 L3.545,15.998 C4.168,15.998 4.323,15.808 4.323,15.167 L4.323,13.194 L14.677,13.194 L14.677,15.167 C14.677,15.808 14.833,15.998 15.454,15.998 L16.851,15.998 C17.473,15.998 17.628,15.808 17.628,15.167 L17.628,13.194 L18.041,12.966 C18.563,12.705 18.999,11.948 18.999,9.823 C18.999,7.643 18.817,7.356 18.650,7.032 ZM3.677,10.847 C3.008,10.847 2.464,10.302 2.464,9.632 C2.464,8.963 3.008,8.418 3.677,8.418 C4.345,8.418 4.889,8.963 4.889,9.632 C4.889,10.302 4.345,10.847 3.677,10.847 ZM15.369,10.847 C14.700,10.847 14.156,10.302 14.156,9.632 C14.156,8.963 14.700,8.418 15.369,8.418 C16.037,8.418 16.581,8.963 16.581,9.632 C16.581,10.302 16.037,10.847 15.369,10.847 ZM16.718,6.340 L2.282,6.340 C2.282,6.340 1.937,6.373 2.042,6.002 C2.130,5.689 3.371,2.602 3.631,1.755 C3.737,1.463 4.336,0.794 5.146,0.843 L13.854,0.843 C14.663,0.794 15.263,1.463 15.368,1.755 C15.629,2.602 16.869,5.689 16.958,6.002 C17.062,6.373 16.718,6.340 16.718,6.340 Z" />
    </g>
  </symbol>

  <symbol id="menu-articles" viewBox="0 0 15 18">
    <g>
      <path d="M13.006,0.931 L13.006,3.030 L13.519,3.000 C14.333,3.000 15.000,3.667 15.000,4.480 L15.000,16.519 C15.000,17.331 14.333,17.999 13.519,17.999 L1.481,17.999 C0.668,17.999 -0.000,17.331 -0.000,16.519 C-0.000,11.505 -0.000,6.493 -0.000,1.480 C-0.000,0.667 0.668,-0.001 1.481,-0.001 L13.006,-0.001 L13.006,0.931 L13.006,0.931 ZM13.006,13.866 C9.164,13.866 5.323,13.866 1.481,13.866 C1.215,13.866 1.000,14.081 1.000,14.348 L1.000,16.519 C1.000,16.784 1.215,16.999 1.481,16.999 L13.519,16.999 C13.786,16.999 14.000,16.784 14.000,16.519 L14.000,4.480 C14.000,4.215 13.785,3.999 13.519,3.999 L13.006,3.999 L13.006,13.866 L13.006,13.866 ZM12.006,12.867 L12.006,0.999 L1.481,0.999 C1.215,0.999 1.000,1.214 1.000,1.480 L1.000,12.948 C1.151,12.896 1.313,12.867 1.481,12.867 C4.989,12.867 8.497,12.867 12.006,12.867 L12.006,12.867 ZM13.006,15.964 L1.991,15.964 L1.991,14.964 L13.006,14.964 L13.006,15.964 L13.006,15.964 Z" />
    </g>
  </symbol>

  <symbol id="menu-contacts" viewBox="0 0 14 18">
    <g>
      <path d="M14.001,7.335 C14.001,9.287 13.236,11.150 11.897,12.515 L7.000,17.953 C5.168,15.919 1.501,12.483 0.548,10.145 C0.195,9.278 -0.002,8.326 -0.002,7.335 C-0.002,3.877 1.822,1.658 4.155,0.685 C5.955,-0.066 8.044,-0.066 9.845,0.685 C12.178,1.658 14.001,3.877 14.001,7.335 L14.001,7.335 ZM10.009,7.076 C10.009,10.999 3.991,10.999 3.991,7.076 C3.991,3.152 10.009,3.152 10.009,7.076 L10.009,7.076 ZM4.989,7.076 C4.989,9.697 9.010,9.697 9.010,7.076 C9.010,4.455 4.989,4.455 4.989,7.076 L4.989,7.076 ZM13.002,7.335 C13.002,4.367 11.454,2.471 9.474,1.645 C7.918,0.995 6.082,0.996 4.526,1.645 C2.545,2.471 0.997,4.367 0.997,7.335 C0.997,8.191 1.163,9.006 1.464,9.745 C2.218,11.594 5.806,15.113 7.000,16.439 L11.188,11.789 C12.350,10.611 13.002,9.023 13.002,7.335 L13.002,7.335 Z" />
    </g>
  </symbol>
</svg>
