<svg width="34" height="28" viewBox="0 0 34 28" fill="none" xmlns="http://www.w3.org/2000/svg">
<path d="M0.720001 13.6388C0.720001 13.0939 0.948547 12.5667 1.3529 12.18L12.9033 0.632727C13.3604 0.193333 13.8351 0 14.3274 0C15.4525 0 16.2612 0.790909 16.2612 1.86303C16.2612 2.42545 16.0327 2.9 15.6811 3.25152L11.7254 7.25879L6.62707 11.9164L10.7058 11.6703H32.0134C33.1913 11.6703 34 12.4788 34 13.6388C34 14.7812 33.1913 15.5897 32.0134 15.5897H10.7058L6.62707 15.3436L11.7254 20.0012L15.6811 24.0085C16.0327 24.36 16.2612 24.8345 16.2612 25.397C16.2612 26.4691 15.4525 27.26 14.3274 27.26C13.8351 27.26 13.3604 27.0667 12.9385 26.6624L1.3529 15.08C0.948547 14.6933 0.720001 14.1661 0.720001 13.6388Z" fill="#FF170A"/>
</svg>
