<svg width="34" height="28" viewBox="0 0 34 28" fill="none" xmlns="http://www.w3.org/2000/svg">
<path d="M33.28 13.6388C33.28 13.0939 33.0515 12.5667 32.6471 12.18L21.0967 0.632727C20.6396 0.193333 20.1649 0 19.6726 0C18.5475 0 17.7388 0.790909 17.7388 1.86303C17.7388 2.42545 17.9673 2.9 18.3189 3.25152L22.2746 7.25879L27.3729 11.9164L23.2942 11.6703H1.9866C0.808706 11.6703 0 12.4788 0 13.6388C0 14.7812 0.808706 15.5897 1.9866 15.5897H23.2942L27.3729 15.3436L22.2746 20.0012L18.3189 24.0085C17.9673 24.36 17.7388 24.8345 17.7388 25.397C17.7388 26.4691 18.5475 27.26 19.6726 27.26C20.1649 27.26 20.6396 27.0667 21.0615 26.6624L32.6471 15.08C33.0515 14.6933 33.28 14.1661 33.28 13.6388Z" fill="#FF170A"/>
</svg>
