<svg width="11" height="19" viewBox="0 0 11 19" fill="none" xmlns="http://www.w3.org/2000/svg">
<path d="M10.4587 9.60491C10.4487 9.25335 10.3181 8.95201 10.0469 8.6808L2.23214 1.03683C2.00112 0.815848 1.72991 0.695312 1.39844 0.695312C0.725446 0.695312 0.203125 1.21763 0.203125 1.89062C0.203125 2.21205 0.333705 2.51339 0.564732 2.74442L7.59598 9.60491L0.564732 16.4654C0.333705 16.6964 0.203125 16.9877 0.203125 17.3192C0.203125 17.9922 0.725446 18.5145 1.39844 18.5145C1.71987 18.5145 2.00112 18.394 2.23214 18.173L10.0469 10.519C10.3281 10.2578 10.4587 9.95647 10.4587 9.60491Z" fill="#FF170A"/>
</svg>
