<svg width="696" height="50" viewBox="0 0 696 50" fill="none" xmlns="http://www.w3.org/2000/svg">
<path d="M35.1934 37L82.1934 41.3333V50H35.1934V37Z" fill="#FF170A"/>
<path d="M35.1934 19L82.1934 28.2083V36L35.1934 31.75V19Z" fill="#FF170A"/>
<path d="M35.1934 0L82.1934 14.9032V22L35.1934 12.0645V0Z" fill="#FF170A"/>
<path d="M1.04297 41.3333L35.043 37V50H1.04297V41.3333Z" fill="#D2180D"/>
<path d="M0.984375 28.36L34.9844 19V31.96L0.984375 37V28.36Z" fill="#D2180D"/>
<path d="M0.955078 13.4839L34.9551 0V12.0645L0.955078 22V13.4839Z" fill="#D2180D"/>
<path fill-rule="evenodd" clip-rule="evenodd" d="M122.028 17.7319C122.471 19.3523 122.132 20.5405 120.984 21.2427C119.706 22.0529 117.018 20.6756 115.531 20.3785C111.357 19.4873 108.878 20.0004 108.122 21.8639C106.843 25.1856 108.382 27.7512 112.74 29.5606C121.454 32.5313 125.211 36.8253 123.958 42.4156C122.341 49.1132 117.488 51.3817 109.4 49.1942C104.834 47.4388 102.46 45.6564 102.225 43.8199C102.721 41.9295 104.13 41.4704 106.4 42.4156C111.957 45.7104 116.001 46.0345 118.506 43.3608C119.967 39.931 119.053 37.6625 115.74 36.5823C110.365 34.0977 106.634 31.9642 104.521 30.1548C101.051 25.6177 101.468 21.2157 105.721 16.9217C110.522 14.1131 115.975 14.3831 122.028 17.7319Z" fill="#FF170A"/>
<path fill-rule="evenodd" clip-rule="evenodd" d="M129.429 29.7454H130.912V47.9475C130.912 49.0818 131.84 50 133.005 50H134.038C135.177 50 136.131 49.0818 136.131 47.9475V29.7454H140.661C141.959 29.7454 143.045 28.7191 143.045 27.4228C143.045 26.1535 141.959 25.1003 140.661 25.1003H136.131V17.0525C136.131 15.9182 135.177 15 134.038 15H133.005C131.84 15 130.912 15.9182 130.912 17.0525V25.1003H129.429C128.105 25.1003 127.045 26.1535 127.045 27.4228C127.045 28.7191 128.105 29.7454 129.429 29.7454Z" fill="#FF170A"/>
<path fill-rule="evenodd" clip-rule="evenodd" d="M147.295 25.7454C148.352 24.6862 149.138 25.0664 150.656 25.0664C155.534 25.0664 157.974 25.0664 157.974 25.0664C161.307 25.7726 163.313 27.8096 164.045 31.2047C164.045 36.9628 164.045 42.7481 164.045 48.5062C163.937 49.2667 163.178 49.7556 161.822 50C157.513 50 153.881 50 150.872 50C147.186 49.0222 145.235 46.5506 145.045 42.5579C145.018 38.3209 147.159 35.8764 151.496 35.1702C156.375 35.1974 158.841 35.1974 158.841 35.1974C158.868 32.9159 158.868 31.748 158.868 31.748C158.516 30.6344 157.567 29.9825 156.076 29.8467C152.797 29.8195 150.547 29.8195 149.3 29.7924C146.888 29.7652 145.723 27.2664 147.295 25.7454ZM158.895 40.0863H152.526C151.035 40.0863 149.843 41.2542 149.843 42.6666C149.843 44.079 151.035 45.2469 152.526 45.2469H158.895V40.0863Z" fill="#FF170A"/>
<path fill-rule="evenodd" clip-rule="evenodd" d="M181.768 50H183.037C184.146 50 185.045 49.1033 185.045 48.0163V31.25C185.045 29.3478 184.014 28.1793 182.455 26.9565C181.002 25.788 180.341 25 178.491 25H169.48H169.269H168.925H168.582H167.71C166.785 25 166.045 25.7065 166.045 26.6033V48.3696C166.045 49.2663 166.785 50 167.71 50H169.48C170.379 50 171.119 49.2663 171.119 48.3696V29.7826L177.857 29.7283C178.544 29.7554 179.178 30.1359 179.76 30.8424V48.0163C179.76 49.1033 180.658 50 181.768 50Z" fill="#FF170A"/>
<path fill-rule="evenodd" clip-rule="evenodd" d="M205.782 49.973C205.648 49.973 205.54 50 205.433 50H203.471C203.364 50 203.257 49.973 203.149 49.973H193.692C190.629 49.6759 188.452 47.4344 188.372 44.3557L188.049 33.2022C187.915 29.0162 190.897 25.3974 195.304 24.8032H201.886V16.5394C201.886 15.6752 202.612 15 203.471 15H205.433C206.319 15 207.045 15.6752 207.045 16.5394V48.4606C207.045 49.1898 206.481 49.811 205.782 49.973ZM193.127 44.8148H201.886V29.9344H193.127V44.8148Z" fill="#FF170A"/>
<path fill-rule="evenodd" clip-rule="evenodd" d="M212.298 25.7454C213.357 24.6862 214.144 25.0664 215.664 25.0664C220.549 25.0664 222.992 25.0664 222.992 25.0664C226.331 25.7726 228.339 27.8096 229.045 31.2047C229.045 36.9628 229.045 42.7481 229.045 48.5062C228.936 49.2667 228.204 49.7556 226.846 50C222.531 50 218.894 50 215.881 50C212.162 49.0222 210.235 46.5506 210.045 42.5579C210.018 38.3209 212.162 35.8764 216.505 35.1702C221.391 35.1974 223.834 35.1974 223.834 35.1974C223.861 32.9159 223.888 31.748 223.888 31.748C223.508 30.6344 222.585 29.9825 221.092 29.8467C217.781 29.8195 215.528 29.8195 214.307 29.7924C211.864 29.7652 210.724 27.2664 212.298 25.7454ZM223.915 40.0863H217.537C216.044 40.0863 214.822 41.2542 214.822 42.6666C214.822 44.079 216.044 45.2469 217.537 45.2469H223.915V40.0863Z" fill="#FF170A"/>
<path fill-rule="evenodd" clip-rule="evenodd" d="M232.369 50H233.143C234.426 50 235.494 48.9674 235.494 47.7446V29.8098H240.596V30.8152C240.596 32.2826 241.825 33.4511 243.32 33.4511C244.816 33.4511 246.045 32.2826 246.045 30.8152V27.6359C246.045 26.5489 245.751 25 244.362 25H243.32H233.143H232.369H231.567C230.739 25 230.045 25.6522 230.045 26.4674V27.2554V28.3424V47.7446C230.045 48.9674 231.087 50 232.369 50Z" fill="#FF170A"/>
<path fill-rule="evenodd" clip-rule="evenodd" d="M250.429 29.7454H251.912V47.9475C251.912 49.0818 252.866 50 254.005 50H255.038C256.204 50 257.131 49.0818 257.131 47.9475V29.7454H261.661C262.959 29.7454 264.045 28.7191 264.045 27.4228C264.045 26.1535 262.959 25.1003 261.661 25.1003H257.131V17.0525C257.131 15.9182 256.204 15 255.038 15H254.005C252.866 15 251.912 15.9182 251.912 17.0525V25.1003H250.429C249.105 25.1003 248.045 26.1535 248.045 27.4228C248.045 28.7191 249.105 29.7454 250.429 29.7454Z" fill="#FF170A"/>
<g opacity="0.6">
<path d="M284.045 49.831L284.045 26.169H286.048L286.048 49.831H284.045Z" fill="black"/>
<path d="M308.789 49.831V26.169H328.4V49.831H326.664V27.1831L327.175 27.7239H310.015L310.526 27.1831V49.831H308.789Z" fill="black"/>
<path d="M340.389 49.831V26.169H348.935C350.932 26.169 352.646 26.4845 354.076 27.1155C355.506 27.7465 356.607 28.6592 357.378 29.8535C358.15 31.0254 358.536 32.4563 358.536 34.1465C358.536 35.7915 358.15 37.2113 357.378 38.4056C356.607 39.6 355.506 40.5127 354.076 41.1437C352.646 41.7746 350.932 42.0901 348.935 42.0901H341.342L342.125 41.2789V49.831H340.389ZM342.125 41.3803L341.342 40.5352H348.935C351.5 40.5352 353.44 39.9831 354.757 38.8789C356.096 37.7521 356.765 36.1746 356.765 34.1465C356.765 32.0958 356.096 30.5183 354.757 29.4141C353.44 28.2873 351.5 27.7239 348.935 27.7239H341.342L342.125 26.8789V41.3803Z" fill="black"/>
<path d="M378.047 50C376.276 50 374.631 49.707 373.11 49.1211C371.612 48.5127 370.295 47.6676 369.16 46.5859C368.048 45.4817 367.186 44.2085 366.573 42.7662C365.96 41.3014 365.654 39.7127 365.654 38C365.654 36.2873 365.96 34.7099 366.573 33.2676C367.186 31.8028 368.048 30.5296 369.16 29.4479C370.295 28.3437 371.612 27.4986 373.11 26.9127C374.631 26.3042 376.276 26 378.047 26C379.817 26 381.451 26.3042 382.949 26.9127C384.47 27.4986 385.787 28.3324 386.899 29.4141C388.011 30.4958 388.873 31.769 389.486 33.2338C390.122 34.6761 390.44 36.2648 390.44 38C390.44 39.7352 390.122 41.3352 389.486 42.8C388.873 44.2423 388.011 45.5042 386.899 46.5859C385.787 47.6676 384.47 48.5127 382.949 49.1211C381.451 49.707 379.817 50 378.047 50ZM378.047 48.4113C379.567 48.4113 380.975 48.1521 382.268 47.6338C383.562 47.1155 384.686 46.3831 385.639 45.4366C386.592 44.4901 387.33 43.3859 387.852 42.1239C388.397 40.862 388.669 39.4873 388.669 38C388.669 36.4901 388.397 35.1155 387.852 33.8761C387.33 32.6141 386.592 31.5099 385.639 30.5634C384.686 29.6169 383.562 28.8845 382.268 28.3662C380.975 27.8479 379.567 27.5887 378.047 27.5887C376.526 27.5887 375.119 27.8479 373.825 28.3662C372.531 28.8845 371.396 29.6169 370.42 30.5634C369.467 31.5099 368.718 32.6141 368.173 33.8761C367.651 35.1155 367.39 36.4901 367.39 38C367.39 39.4873 367.651 40.862 368.173 42.1239C368.718 43.3859 369.467 44.4901 370.42 45.4366C371.396 46.3831 372.531 47.1155 373.825 47.6338C375.119 48.1521 376.526 48.4113 378.047 48.4113Z" fill="black"/>
<path d="M401.796 37.0535H414.7V38.5746H401.796V37.0535ZM402 48.2761H416.708V49.831H400.263V26.169H416.198V27.7239H402V48.2761Z" fill="black"/>
<path d="M442.459 49.831L432.823 37.9324L434.287 37.0873L444.501 49.831H442.459ZM425.912 49.831V26.169H427.648V49.831H425.912ZM427.069 38.6085V37.0535H434.321V38.6085H427.069ZM434.389 38.169L432.789 37.831L441.948 26.169H443.889L434.389 38.169Z" fill="black"/>
<path d="M456.589 49.831V27.1831L457.1 27.7239H448.01V26.169H466.905V27.7239H457.815L458.326 27.1831V49.831H456.589Z" fill="black"/>
<path d="M492.617 26.169H494.354V49.831H492.617V26.169ZM476.684 49.831H474.947V26.169H476.684V49.831ZM492.822 38.5746H476.479V37.0535H492.822V38.5746Z" fill="black"/>
<path d="M516.561 50C514.791 50 513.145 49.707 511.625 49.1211C510.127 48.5127 508.81 47.6676 507.675 46.5859C506.563 45.4817 505.7 44.2085 505.088 42.7662C504.475 41.3014 504.168 39.7127 504.168 38C504.168 36.2873 504.475 34.7099 505.088 33.2676C505.7 31.8028 506.563 30.5296 507.675 29.4479C508.81 28.3437 510.127 27.4986 511.625 26.9127C513.145 26.3042 514.791 26 516.561 26C518.332 26 519.966 26.3042 521.464 26.9127C522.985 27.4986 524.301 28.3324 525.414 29.4141C526.526 30.4958 527.388 31.769 528.001 33.2338C528.637 34.6761 528.954 36.2648 528.954 38C528.954 39.7352 528.637 41.3352 528.001 42.8C527.388 44.2423 526.526 45.5042 525.414 46.5859C524.301 47.6676 522.985 48.5127 521.464 49.1211C519.966 49.707 518.332 50 516.561 50ZM516.561 48.4113C518.082 48.4113 519.489 48.1521 520.783 47.6338C522.077 47.1155 523.2 46.3831 524.154 45.4366C525.107 44.4901 525.845 43.3859 526.367 42.1239C526.912 40.862 527.184 39.4873 527.184 38C527.184 36.4901 526.912 35.1155 526.367 33.8761C525.845 32.6141 525.107 31.5099 524.154 30.5634C523.2 29.6169 522.077 28.8845 520.783 28.3662C519.489 27.8479 518.082 27.5887 516.561 27.5887C515.041 27.5887 513.633 27.8479 512.34 28.3662C511.046 28.8845 509.911 29.6169 508.935 30.5634C507.982 31.5099 507.233 32.6141 506.688 33.8761C506.166 35.1155 505.905 36.4901 505.905 38C505.905 39.4873 506.166 40.862 506.688 42.1239C507.233 43.3859 507.982 44.4901 508.935 45.4366C509.911 46.3831 511.046 47.1155 512.34 47.6338C513.633 48.1521 515.041 48.4113 516.561 48.4113Z" fill="black"/>
<path d="M540.31 37.0535H553.214V38.5746H540.31V37.0535ZM540.514 48.2761H555.222V49.831H538.778V26.169H554.712V27.7239H540.514V48.2761Z" fill="black"/>
<path d="M576.575 49.831V26.169H593.564V27.6901H578.311V36.2085H586.38C589.172 36.2085 591.294 36.7718 592.747 37.8986C594.2 39.0254 594.926 40.6817 594.926 42.8676C594.926 45.1437 594.154 46.8789 592.611 48.0732C591.09 49.2451 588.854 49.831 585.904 49.831H576.575ZM578.311 48.3775H585.938C588.321 48.3775 590.126 47.9268 591.351 47.0254C592.577 46.1014 593.19 44.738 593.19 42.9352C593.19 39.3972 590.772 37.6282 585.938 37.6282H578.311V48.3775Z" fill="black"/>
<path d="M604.584 49.831V26.169H606.32V37.0197H612.449V38.6085H606.32V49.831H604.584ZM623.378 50C621.698 50 620.143 49.707 618.713 49.1211C617.283 48.5127 616.035 47.6676 614.968 46.5859C613.924 45.5042 613.107 44.2423 612.517 42.8C611.927 41.3352 611.631 39.7352 611.631 38C611.631 36.2648 611.927 34.6761 612.517 33.2338C613.107 31.769 613.924 30.4958 614.968 29.4141C616.035 28.3324 617.283 27.4986 618.713 26.9127C620.143 26.3042 621.698 26 623.378 26C625.034 26 626.578 26.3042 628.008 26.9127C629.461 27.4986 630.709 28.3324 631.753 29.4141C632.82 30.4958 633.648 31.769 634.238 33.2338C634.829 34.6761 635.124 36.2648 635.124 38C635.124 39.7352 634.829 41.3352 634.238 42.8C633.648 44.2423 632.82 45.5042 631.753 46.5859C630.709 47.6676 629.461 48.5127 628.008 49.1211C626.578 49.707 625.034 50 623.378 50ZM623.378 48.4113C624.785 48.4113 626.09 48.1521 627.293 47.6338C628.519 47.1155 629.585 46.3944 630.493 45.4704C631.401 44.5239 632.105 43.4197 632.604 42.1577C633.104 40.8958 633.353 39.5099 633.353 38C633.353 36.4901 633.104 35.1042 632.604 33.8423C632.105 32.5803 631.401 31.4873 630.493 30.5634C629.585 29.6169 628.519 28.8845 627.293 28.3662C626.09 27.8479 624.785 27.5887 623.378 27.5887C621.97 27.5887 620.654 27.8479 619.428 28.3662C618.225 28.8845 617.17 29.6169 616.262 30.5634C615.377 31.4873 614.673 32.5803 614.151 33.8423C613.652 35.1042 613.402 36.4901 613.402 38C613.402 39.5099 613.652 40.8958 614.151 42.1577C614.673 43.4197 615.377 44.5239 616.262 45.4704C617.17 46.3944 618.225 47.1155 619.428 47.6338C620.654 48.1521 621.97 48.4113 623.378 48.4113Z" fill="black"/>
<path d="M644.994 49.831V26.169H653.54C655.537 26.169 657.251 26.4845 658.681 27.1155C660.111 27.7465 661.212 28.6592 661.984 29.8535C662.755 31.0254 663.141 32.4563 663.141 34.1465C663.141 35.7915 662.755 37.2113 661.984 38.4056C661.212 39.6 660.111 40.5127 658.681 41.1437C657.251 41.7746 655.537 42.0901 653.54 42.0901H645.948L646.731 41.2789V49.831H644.994ZM646.731 41.3803L645.948 40.5352H653.54C656.105 40.5352 658.046 39.9831 659.362 38.8789C660.701 37.7521 661.371 36.1746 661.371 34.1465C661.371 32.0958 660.701 30.5183 659.362 29.4141C658.046 28.2873 656.105 27.7239 653.54 27.7239H645.948L646.731 26.8789V41.3803Z" fill="black"/>
<path d="M682.652 50C680.881 50 679.236 49.707 677.715 49.1211C676.217 48.5127 674.901 47.6676 673.766 46.5859C672.654 45.4817 671.791 44.2085 671.178 42.7662C670.565 41.3014 670.259 39.7127 670.259 38C670.259 36.2873 670.565 34.7099 671.178 33.2676C671.791 31.8028 672.654 30.5296 673.766 29.4479C674.901 28.3437 676.217 27.4986 677.715 26.9127C679.236 26.3042 680.881 26 682.652 26C684.422 26 686.057 26.3042 687.555 26.9127C689.075 27.4986 690.392 28.3324 691.504 29.4141C692.616 30.4958 693.479 31.769 694.092 33.2338C694.727 34.6761 695.045 36.2648 695.045 38C695.045 39.7352 694.727 41.3352 694.092 42.8C693.479 44.2423 692.616 45.5042 691.504 46.5859C690.392 47.6676 689.075 48.5127 687.555 49.1211C686.057 49.707 684.422 50 682.652 50ZM682.652 48.4113C684.173 48.4113 685.58 48.1521 686.874 47.6338C688.167 47.1155 689.291 46.3831 690.244 45.4366C691.198 44.4901 691.935 43.3859 692.457 42.1239C693.002 40.862 693.275 39.4873 693.275 38C693.275 36.4901 693.002 35.1155 692.457 33.8761C691.935 32.6141 691.198 31.5099 690.244 30.5634C689.291 29.6169 688.167 28.8845 686.874 28.3662C685.58 27.8479 684.173 27.5887 682.652 27.5887C681.131 27.5887 679.724 27.8479 678.43 28.3662C677.136 28.8845 676.001 29.6169 675.025 30.5634C674.072 31.5099 673.323 32.6141 672.778 33.8761C672.256 35.1155 671.995 36.4901 671.995 38C671.995 39.4873 672.256 40.862 672.778 42.1239C673.323 43.3859 674.072 44.4901 675.025 45.4366C676.001 46.3831 677.136 47.1155 678.43 47.6338C679.724 48.1521 681.131 48.4113 682.652 48.4113Z" fill="black"/>
</g>
</svg>
