<svg width="156" height="152" viewBox="0 0 156 152" fill="none" xmlns="http://www.w3.org/2000/svg">
<path d="M60.969 128.487L59.2791 127.867L53.4933 143.639L54.7326 144.093C55.0308 143.768 55.3884 143.49 55.7887 143.305C56.4971 142.977 57.5209 142.764 58.8976 143.193L59.2695 142.179L56.3404 141.104L60.969 128.487Z" fill="#FF170A"/>
<path d="M46.8514 124.447C46.8679 123.833 46.7984 123.208 46.6275 122.593C46.3308 121.494 45.7098 120.183 44.2616 118.96C41.6035 116.713 38.3905 116.983 36.2992 119.458C34.27 121.86 34.5513 125.208 37.0444 127.315C37.8326 127.981 38.577 128.327 39.169 128.482C39.5003 128.573 39.8287 128.63 40.1387 128.673L36.4559 132.473L30.7731 127.671L29.6888 128.954L36.5631 134.763L43.1401 127.91L42.1319 127.058C41.7472 127.141 41.3075 127.178 40.8621 127.147C40.1095 127.108 39.1003 126.852 38.1287 126.031C36.3689 124.544 36.187 122.38 37.6741 120.62C39.1612 118.86 41.3441 118.694 43.1773 120.243C44.2772 121.172 44.7585 122.239 45.0015 123.104C45.1272 123.587 45.1853 124.076 45.1603 124.589L46.8514 124.447Z" fill="#FF170A"/>
<path d="M27.5302 97.77C27.551 97.6425 27.5613 97.468 27.5482 97.2988C27.5506 96.9786 27.514 96.5934 27.4252 96.1952C26.799 93.3841 24.6506 92.0186 14.6947 94.2366L11.4151 94.9672L9.84945 87.9395L24.6076 84.6516L24.2162 82.8947L7.81823 86.5479L10.1667 97.0895L15.0861 95.9935C23.7536 94.0625 25.3291 95.0639 25.7205 96.8208C25.7883 97.1254 25.8041 97.4169 25.7965 97.7137C25.8096 97.8829 25.794 98.0339 25.7733 98.1614L27.5302 97.77Z" fill="#FF170A"/>
<path d="M24.1508 72.7358L26.4963 61.2121L24.8501 60.877L22.8636 70.6369L16.749 69.3923L18.3047 61.749L16.6584 61.4139L15.1027 69.0572L9.69362 67.9563L11.6323 58.4316L9.98602 58.0965L7.68836 69.385L24.1508 72.7358Z" fill="#FF170A"/>
<path d="M32.6976 48.4689L33.7003 46.974L21.1431 38.5518L24.0842 34.1668L22.689 33.231L15.8042 43.4959L17.1994 44.4317L20.1405 40.0467L32.6976 48.4689Z" fill="#FF170A"/>
<path d="M53.8588 28.8067L55.5558 28.2064L52.9946 20.9661L61.8188 17.8446L64.38 25.085L66.0769 24.4847L60.4743 8.64644L58.7774 9.24672L61.2585 16.2608L52.4343 19.3823L49.9532 12.3682L48.2562 12.9684L53.8588 28.8067Z" fill="#FF170A"/>
<path d="M74.8419 23.0136L76.7558 23.1671L79.0436 18.6555L86.9383 19.2884L88.4782 24.1069L90.392 24.2603L84.7968 6.95782L83.1222 6.82356L74.8419 23.0136ZM79.8956 17.0384L83.7581 9.40263L86.3549 17.5562L79.8956 17.0384Z" fill="#FF170A"/>
<path d="M109.587 32.9887L110.917 34.2024L115.124 29.5943L118.492 32.6691C120.796 34.7729 124.033 34.6088 126.039 32.4111C128.046 30.2135 127.916 26.9746 125.612 24.8709L120.915 20.5824L109.587 32.9887ZM116.257 28.3537L121.112 23.0367L124.479 26.1115C126.092 27.5841 126.183 29.5846 124.71 31.1974C123.238 32.8102 121.237 32.9011 119.624 31.4285L116.257 28.3537Z" fill="#FF170A"/>
<path d="M125.713 50.4663L127.874 56.1923C128.975 59.1114 131.936 60.4313 134.72 59.3807C137.505 58.3301 138.855 55.3835 137.754 52.4644L136.229 48.4226L142.067 46.2197L141.432 44.5356L125.713 50.4663ZM130.797 63.9392L131.432 65.6233L147.151 59.6926L146.515 58.0085L130.797 63.9392ZM127.921 51.5574L134.657 49.0156L136.182 53.0575C136.953 55.1009 136.128 56.9256 134.085 57.6966C132.041 58.4676 130.217 57.6426 129.446 55.5992L127.921 51.5574Z" fill="#FF170A"/>
<path d="M132.576 76.5189L132.38 78.3082L140.014 79.1452L138.994 88.4495L131.359 87.6124L131.163 89.4017L147.863 91.2327L148.059 89.4434L140.664 88.6326L141.684 79.3283L149.079 80.1392L149.276 78.3499L132.576 76.5189Z" fill="#FF170A"/>
<path d="M127.652 99.6969L126.744 101.251L130.991 103.735L132.402 108.452L122.018 109.33L120.928 111.195L132.935 110.155L135.733 119.158L136.884 117.19L133.062 104.946L141.245 109.732L142.154 108.178L127.652 99.6969Z" fill="#FF170A"/>
<path d="M115.103 117.223L105.612 124.166L106.604 125.522L114.643 119.642L118.327 124.678L112.032 129.283L113.023 130.639L119.319 126.034L122.578 130.489L114.733 136.228L115.725 137.584L125.023 130.782L115.103 117.223Z" fill="#FF170A"/>
<path d="M96.9286 129.022C96.7005 128.314 96.1267 128.019 95.4185 128.247C94.7104 128.476 94.4161 129.049 94.6442 129.758C94.8723 130.466 95.4461 130.76 96.1543 130.532C96.8625 130.304 97.1567 129.73 96.9286 129.022Z" fill="#FF170A"/>
</svg>
