<svg width="360" height="355" viewBox="0 0 360 355" fill="none" xmlns="http://www.w3.org/2000/svg">
<path d="M341.129 188.616L342 187.72V193.289H340.259V181.389H342V187.502L341.129 186.606H358.483L357.558 187.475V181.715H359.299V188.616H341.129Z" fill="#FF170A"/>
<path d="M337.007 210.352C337.149 209.384 337.386 208.467 337.715 207.6C338.042 206.751 338.43 205.984 338.879 205.3C339.344 204.636 339.848 204.078 340.391 203.627L341.786 204.794C341.099 205.352 340.471 206.129 339.902 207.126C339.349 208.143 338.974 209.314 338.779 210.64C338.612 211.769 338.644 212.735 338.874 213.538C339.103 214.341 339.477 214.973 339.996 215.433C340.532 215.897 341.177 216.184 341.931 216.295C342.684 216.406 343.377 216.307 344.01 215.997C344.657 215.708 345.211 215.121 345.671 214.237C346.147 213.373 346.505 212.126 346.746 210.495L347.401 206.06L356.699 208.445L355.128 219.09L353.406 218.836L354.862 208.971L355.657 210.104L347.868 208.106L348.976 207.308L348.413 211.125C348.127 213.06 347.656 214.575 347 215.668C346.362 216.764 345.591 217.511 344.69 217.91C343.785 218.326 342.786 218.453 341.691 218.292C340.651 218.139 339.729 217.738 338.927 217.089C338.14 216.46 337.564 215.579 337.2 214.445C336.833 213.329 336.769 211.965 337.007 210.352Z" fill="#FF170A"/>
<path d="M329.414 235.928L330.914 236.648C330.852 236.76 330.784 236.861 330.711 236.949C330.649 237.061 330.601 237.159 330.569 237.244C330.361 237.785 330.398 238.294 330.681 238.771C330.958 239.265 331.402 239.726 332.014 240.155C332.626 240.584 333.343 240.994 334.163 241.386C335 241.785 335.841 242.175 336.685 242.557L341.346 244.606L337.594 254.371L324.262 249.26L324.954 247.459L337.244 252.171L336.536 252.424L339.323 245.169L339.716 245.814L335.934 244.132C334.803 243.64 333.738 243.125 332.74 242.587C331.736 242.066 330.888 241.518 330.196 240.942C329.498 240.384 329.008 239.788 328.727 239.157C328.462 238.531 328.466 237.863 328.739 237.153C328.817 236.95 328.915 236.745 329.033 236.539C329.145 236.349 329.272 236.145 329.414 235.928Z" fill="#FF170A"/>
<path d="M315.562 263.754C316.281 262.453 317.181 261.46 318.264 260.774C319.363 260.097 320.542 259.743 321.801 259.713C323.076 259.692 324.333 260.022 325.571 260.705C326.81 261.387 327.761 262.253 328.425 263.301C329.08 264.365 329.423 265.506 329.455 266.723C329.494 267.965 329.194 269.165 328.554 270.323C327.906 271.496 327.062 272.387 326.023 272.993C324.991 273.624 323.846 273.935 322.589 273.924C321.347 273.923 320.099 273.577 318.845 272.885C318.765 272.842 318.682 272.786 318.596 272.717C318.516 272.674 318.429 272.625 318.334 272.573L324.338 261.701L325.6 262.396L320.095 272.364L319.963 271.423C320.868 271.921 321.78 272.165 322.697 272.153C323.622 272.166 324.467 271.949 325.231 271.502C325.996 271.055 326.62 270.395 327.101 269.522C327.574 268.666 327.801 267.787 327.78 266.887C327.76 265.986 327.498 265.148 326.993 264.374C326.489 263.6 325.776 262.959 324.855 262.451L324.593 262.307C323.641 261.782 322.685 261.525 321.727 261.534C320.776 261.569 319.889 261.845 319.064 262.363C318.247 262.906 317.571 263.661 317.037 264.628C316.616 265.389 316.361 266.17 316.272 266.969C316.174 267.783 316.272 268.582 316.565 269.364L314.944 269.712C314.583 268.789 314.461 267.811 314.575 266.778C314.682 265.761 315.011 264.753 315.562 263.754Z" fill="#FF170A"/>
<path d="M304.693 279.003L315.21 286.822L314.503 286.906L318.027 282.177L319.38 283.183L311.763 293.405L310.411 292.399L313.935 287.669L314.057 288.37L303.54 280.551L304.693 279.003Z" fill="#FF170A"/>
<path d="M286.155 298.485L295.879 308.931L294.465 310.245L290.168 305.629L283.574 311.753L287.871 316.369L286.457 317.682L276.733 307.236L278.147 305.923L282.444 310.539L289.038 304.415L284.741 299.799L286.155 298.485Z" fill="#FF170A"/>
<path d="M260.329 317.905L262.128 320.494L262.49 320.871L265.5 325.201C266.193 326.198 267.009 326.768 267.947 326.911C268.87 327.064 269.883 326.758 270.985 325.994C271.745 325.467 272.379 324.84 272.889 324.111C273.398 323.383 273.746 322.646 273.933 321.898L275.471 322.585C275.226 323.504 274.78 324.387 274.132 325.233C273.495 326.095 272.714 326.846 271.791 327.486C270.272 328.54 268.839 328.971 267.492 328.781C266.141 328.616 264.932 327.767 263.867 326.234L258.809 318.959L260.329 317.905ZM264.295 314.989C265.174 314.379 266.039 313.988 266.891 313.816C267.738 313.67 268.509 313.731 269.203 313.999C269.908 314.282 270.493 314.758 270.958 315.428C271.382 316.038 271.624 316.686 271.682 317.374C271.736 318.086 271.538 318.818 271.09 319.571C270.637 320.348 269.852 321.124 268.735 321.899L264.691 324.704L263.868 323.521L267.868 320.747C269 319.962 269.649 319.213 269.817 318.502C269.97 317.8 269.839 317.152 269.425 316.557C268.96 315.888 268.327 315.533 267.526 315.493C266.726 315.453 265.856 315.758 264.918 316.409C264.024 317.029 263.397 317.762 263.036 318.608C262.67 319.479 262.607 320.404 262.847 321.385L261.729 320.539C261.489 319.559 261.581 318.58 262.005 317.602C262.415 316.635 263.178 315.764 264.295 314.989Z" fill="#FF170A"/>
<path d="M232.096 330.855C233.228 330.367 234.363 330.183 235.502 330.303C236.647 330.441 237.707 330.881 238.68 331.626C239.644 332.393 240.436 333.493 241.054 334.923C241.672 336.353 241.927 337.673 241.818 338.884C241.717 340.112 241.32 341.181 240.627 342.091C239.934 343.002 239.013 343.704 237.865 344.2C236.616 344.738 235.378 344.937 234.152 344.795C232.916 344.677 231.795 344.233 230.791 343.463C229.793 342.709 229.011 341.676 228.443 340.362C227.868 339.031 227.648 337.745 227.782 336.503C227.917 335.262 228.362 334.143 229.116 333.146C229.854 332.157 230.847 331.394 232.096 330.855ZM236.825 323.222L244.578 341.156L242.88 341.889L241.176 337.948L240.219 335.253L238.826 332.717L235.052 323.986L236.825 323.222ZM232.9 332.373C231.968 332.775 231.225 333.342 230.672 334.073C230.127 334.822 229.803 335.671 229.701 336.623C229.606 337.591 229.777 338.583 230.216 339.597C230.654 340.611 231.255 341.408 232.019 341.986C232.782 342.564 233.624 342.912 234.543 343.028C235.463 343.144 236.389 343.002 237.321 342.6C238.253 342.197 239 341.619 239.563 340.863C240.108 340.115 240.432 339.265 240.534 338.313C240.62 337.369 240.443 336.389 240.005 335.375C239.566 334.361 238.97 333.552 238.216 332.95C237.453 332.372 236.611 332.025 235.692 331.908C234.763 331.816 233.832 331.97 232.9 332.373Z" fill="#FF170A"/>
<path d="M202.659 338.966L206.29 352.761L204.422 353.252L200.792 339.456L202.659 338.966ZM212.666 345.89C210.925 346.328 209.499 346.291 208.389 345.777C207.279 345.263 206.537 344.297 206.164 342.878C205.776 341.406 205.97 340.147 206.745 339.101C207.52 338.055 208.821 337.301 210.65 336.84L216.128 335.429L219.759 349.225L217.891 349.715L216.626 344.906L212.666 345.89ZM211.155 338.224C209.852 338.547 208.946 339.057 208.435 339.753C207.912 340.471 207.786 341.347 208.058 342.38C208.33 343.414 208.853 344.082 209.626 344.385C210.404 344.705 211.453 344.701 212.773 344.373L216.259 343.514L214.641 337.365L211.155 338.224Z" fill="#FF170A"/>
<path d="M189.592 339.609L190.911 353.812L188.988 353.991L188.405 347.714L179.44 348.545L180.023 354.822L178.1 355L176.781 340.797L178.704 340.619L179.287 346.895L188.252 346.064L187.669 339.787L189.592 339.609Z" fill="#FF170A"/>
<path d="M154.991 339.059L160.476 346.43L158.822 347.293L152.71 338.936L154.991 339.059ZM165.448 339.624L164.677 353.867L162.749 353.763L163.52 339.52L165.448 339.624ZM163.773 345.901L163.684 347.556L159.094 347.308L159.183 345.653L163.773 345.901ZM158.718 346.199L160.496 346.567L154.437 353.314L152.346 353.201L158.718 346.199Z" fill="#FF170A"/>
<path d="M138.76 335.555C140.223 335.822 141.451 336.36 142.447 337.167C143.438 337.993 144.149 338.997 144.577 340.18C145.003 341.381 145.088 342.677 144.834 344.066C144.579 345.456 144.06 346.632 143.276 347.593C142.474 348.552 141.5 349.239 140.354 349.656C139.188 350.088 137.953 350.184 136.651 349.947C135.331 349.706 134.218 349.189 133.312 348.398C132.385 347.621 131.727 346.635 131.337 345.441C130.944 344.264 130.877 342.972 131.134 341.565C131.151 341.476 131.177 341.379 131.215 341.276C131.231 341.186 131.249 341.088 131.269 340.982L143.497 343.215L143.237 344.631L132.026 342.584L132.878 342.159C132.692 343.175 132.75 344.115 133.053 344.981C133.334 345.861 133.809 346.592 134.476 347.174C135.144 347.756 135.968 348.137 136.95 348.316C137.913 348.492 138.819 348.427 139.667 348.122C140.516 347.817 141.228 347.302 141.802 346.579C142.377 345.855 142.759 344.977 142.948 343.943L143.002 343.649C143.198 342.58 143.139 341.593 142.825 340.689C142.49 339.799 141.946 339.046 141.192 338.43C140.418 337.828 139.486 337.428 138.398 337.229C137.542 337.073 136.72 337.079 135.934 337.249C135.129 337.415 134.402 337.761 133.753 338.286L132.907 336.862C133.669 336.227 134.558 335.8 135.575 335.581C136.574 335.358 137.636 335.35 138.76 335.555Z" fill="#FF170A"/>
<path d="M114.429 321.723L104.775 345.255L103.114 344.575L112.768 321.043L114.429 321.723Z" fill="black"/>
<path d="M83.4978 311.811L83.819 313.018L79.0391 310.15L79.9355 308.659L90.1483 314.787L89.2519 316.278L84.0056 313.13L85.2233 312.846L76.2869 327.705L76.017 326.466L80.9602 329.432L80.0638 330.922L74.1413 327.369L83.4978 311.811Z" fill="#FF170A"/>
<path d="M66.9058 296.999C67.6627 297.619 68.3283 298.294 68.9027 299.022C69.463 299.739 69.9212 300.466 70.2773 301.204C70.6079 301.943 70.827 302.662 70.9344 303.359L69.2149 303.953C69.0899 303.077 68.7461 302.139 68.1837 301.139C67.5957 300.142 66.7831 299.218 65.7458 298.367C64.8627 297.644 64.0175 297.173 63.2102 296.957C62.4029 296.74 61.668 296.735 61.0055 296.942C60.3315 297.163 59.7529 297.567 59.2698 298.155C58.7866 298.743 58.5152 299.388 58.4554 300.088C58.3701 300.792 58.5884 301.568 59.1103 302.418C59.6066 303.27 60.4925 304.219 61.7681 305.264L65.2374 308.109L58.4026 314.843L50.0763 308.017L51.1806 306.673L58.8972 312.999L57.5153 313.096L63.2404 307.456L63.3551 308.815L60.3694 306.367C58.8555 305.126 57.7983 303.943 57.1978 302.818C56.5857 301.707 56.341 300.663 56.4637 299.686C56.5724 298.697 56.9776 297.776 57.6793 296.922C58.3466 296.109 59.1653 295.527 60.1355 295.174C61.0802 294.824 62.1328 294.785 63.2935 295.057C64.4401 295.317 65.6442 295.964 66.9058 296.999Z" fill="#FF170A"/>
<path d="M48.7563 277.14L47.3638 278.051C47.3001 277.94 47.2491 277.831 47.2108 277.723C47.1472 277.611 47.0875 277.52 47.0317 277.449C46.6752 276.991 46.2193 276.76 45.6643 276.756C45.0981 276.737 44.4731 276.879 43.7895 277.182C43.1058 277.484 42.384 277.885 41.6241 278.384C40.8499 278.895 40.0813 279.412 39.3183 279.937L35.155 282.866L28.72 274.614L39.9861 265.848L41.1728 267.37L30.7865 275.451L30.9363 274.714L35.7166 280.845L34.9603 280.848L38.3559 278.482C39.3621 277.768 40.3533 277.123 41.3294 276.547C42.2944 275.957 43.2022 275.515 44.0529 275.22C44.8925 274.911 45.6558 274.8 46.3429 274.885C47.0157 274.981 47.5861 275.33 48.0541 275.93C48.1878 276.101 48.3128 276.291 48.4291 276.499C48.5342 276.693 48.6433 276.907 48.7563 277.14Z" fill="#FF170A"/>
<path d="M32.0903 251.094C32.8371 252.378 33.2263 253.66 33.2579 254.941C33.2738 256.23 32.9707 257.422 32.3486 258.516C31.7109 259.619 30.7805 260.526 29.5574 261.235C28.3344 261.945 27.1021 262.314 25.8608 262.343C24.6103 262.356 23.4543 262.064 22.3929 261.464C21.3067 260.859 20.4312 259.984 19.7663 258.841C19.0923 257.682 18.7623 256.501 18.7763 255.299C18.7655 254.09 19.0881 252.95 19.744 251.878C20.3843 250.816 21.3238 249.925 22.5625 249.206C22.6409 249.161 22.7317 249.119 22.8349 249.08C22.9133 249.034 22.9995 248.984 23.0936 248.93L29.3371 259.666L28.0906 260.39L22.3662 250.546L23.2427 250.917C22.3489 251.435 21.6709 252.091 21.2086 252.882C20.7216 253.668 20.4734 254.503 20.4639 255.388C20.4544 256.274 20.7001 257.147 21.2011 258.008C21.6929 258.854 22.3306 259.5 23.1143 259.946C23.898 260.392 24.7519 260.598 25.6761 260.565C26.6003 260.532 27.5171 260.251 28.4266 259.723L28.6853 259.573C29.6261 259.027 30.3388 258.341 30.8233 257.516C31.283 256.684 31.5027 255.781 31.4823 254.808C31.4371 253.829 31.1367 252.862 30.5811 251.906C30.144 251.154 29.6054 250.535 28.9654 250.047C28.3163 249.544 27.5807 249.217 26.7586 249.065L27.2941 247.498C28.2715 247.664 29.174 248.062 30.0017 248.692C30.8203 249.306 31.5165 250.107 32.0903 251.094Z" fill="#FF170A"/>
<path d="M24.5861 233.929L12.4546 238.895L12.7472 238.247L14.9854 243.702L13.425 244.341L8.58746 232.55L10.1479 231.911L12.3862 237.367L11.7223 237.11L23.8538 232.144L24.5861 233.929Z" fill="#FF170A"/>
<path d="M17.4885 208.311L3.51474 211.25L3.11675 209.363L9.29181 208.064L7.43639 199.264L1.26133 200.563L0.863343 198.675L14.8371 195.735L15.2351 197.623L9.06001 198.922L10.9154 207.722L17.0905 206.423L17.4885 208.311Z" fill="#FF170A"/>
<path d="M14.1655 175.969L11.0163 176.164L10.5055 176.277L5.23862 176.602C4.02598 176.677 3.11513 177.078 2.50607 177.805C1.8959 178.514 1.6322 179.538 1.71498 180.876C1.77204 181.798 1.98014 182.665 2.33928 183.478C2.69843 184.29 3.14929 184.97 3.69186 185.517L2.30668 186.474C1.64656 185.789 1.12229 184.95 0.733856 183.958C0.327325 182.967 0.0893791 181.911 0.0200189 180.79C-0.0940897 178.946 0.279619 177.498 1.14115 176.447C1.98345 175.378 3.33671 174.787 5.20092 174.672L14.0514 174.125L14.1655 175.969ZM14.605 180.869C14.671 181.936 14.5567 182.878 14.262 183.694C13.9481 184.494 13.4964 185.121 12.9067 185.575C12.299 186.029 11.5879 186.282 10.7734 186.332C10.0314 186.378 9.35106 186.248 8.73253 185.941C8.09479 185.618 7.57031 185.069 7.15911 184.296C6.72868 183.506 6.47152 182.433 6.38762 181.077L6.08388 176.169L7.52276 176.08L7.82314 180.934C7.90816 182.308 8.21179 183.251 8.73403 183.763C9.25515 184.257 9.87769 184.482 10.6017 184.437C11.4161 184.387 12.0481 184.031 12.4976 183.368C12.9471 182.705 13.1367 181.804 13.0662 180.665C12.9991 179.58 12.6971 178.664 12.1603 177.917C11.6043 177.153 10.8446 176.619 9.88104 176.315L11.1845 175.799C12.148 176.103 12.9383 176.689 13.5553 177.559C14.1712 178.41 14.5211 179.513 14.605 180.869Z" fill="#FF170A"/>
<path d="M17.6702 144.719C17.4998 145.939 17.0672 147.003 16.3726 147.912C15.6601 148.819 14.7326 149.494 13.5903 149.939C12.4325 150.362 11.0813 150.467 9.5368 150.251C7.99228 150.036 6.73032 149.568 5.75092 148.846C4.75356 148.121 4.04543 147.227 3.62655 146.163C3.20767 145.099 3.08471 143.948 3.25767 142.71C3.44568 141.364 3.91894 140.205 4.67745 139.232C5.42052 138.238 6.38243 137.512 7.5632 137.055C8.726 136.596 10.0168 136.465 11.4356 136.662C12.8724 136.863 14.0869 137.343 15.0793 138.103C16.0716 138.863 16.7979 139.824 17.2581 140.986C17.7209 142.129 17.8582 143.374 17.6702 144.719ZM21.7428 152.721L2.37341 150.021L2.62909 148.191L6.88551 148.784L9.68782 149.367L12.581 149.496L22.0098 150.811L21.7428 152.721ZM15.9543 144.617C16.0946 143.612 15.9955 142.684 15.6568 141.832C15.3001 140.978 14.7413 140.26 13.9803 139.678C13.2014 139.094 12.2642 138.726 11.1686 138.573C10.0731 138.42 9.07969 138.519 8.18838 138.871C7.29706 139.222 6.56278 139.76 5.98554 140.484C5.4083 141.208 5.04949 142.073 4.90912 143.077C4.76874 144.082 4.87563 145.02 5.22978 145.893C5.58643 146.747 6.14525 147.465 6.90621 148.047C7.66969 148.61 8.59919 148.968 9.69472 149.121C10.7903 149.274 11.7914 149.185 12.6982 148.854C13.5895 148.503 14.3238 147.965 14.901 147.241C15.4628 146.496 15.8139 145.622 15.9543 144.617Z" fill="#FF170A"/>
<path d="M25.9517 115.22L12.257 111.177L12.8044 109.327L26.499 113.37L25.9517 115.22ZM14.8393 120.184C15.3655 118.469 16.1361 117.271 17.1511 116.588C18.1662 115.906 19.378 115.772 20.7866 116.188C22.2474 116.619 23.2251 117.437 23.7198 118.641C24.2146 119.844 24.186 121.347 23.6341 123.148L22.0044 128.56L8.30975 124.517L8.85712 122.667L13.6307 124.077L14.8393 120.184ZM22.1869 122.863C22.5846 121.583 22.6177 120.544 22.2862 119.747C21.9424 118.928 21.2575 118.367 20.2315 118.064C19.2055 117.761 18.3626 117.862 17.7029 118.366C17.0259 118.865 16.4859 119.763 16.083 121.061L15.0132 124.485L21.1171 126.287L22.1869 122.863Z" fill="#FF170A"/>
<path d="M32.0193 103.987L19.1748 97.7535L20.0188 96.0184L25.6948 98.773L29.6294 90.684L23.9533 87.9294L24.7973 86.1943L37.6418 92.4278L36.7978 94.1629L31.1218 91.4083L27.1872 99.4973L32.8633 102.252L32.0193 103.987Z" fill="#FF170A"/>
<path d="M49.8572 75.4107L40.7063 76.3023L40.8193 74.4419L51.1397 73.5219L49.8572 75.4107ZM43.9789 84.0677L32.1606 76.0609L33.2446 74.4644L45.0629 82.4712L43.9789 84.0677ZM39.4594 79.3971L38.0863 78.4668L40.6666 74.6667L42.0398 75.5971L39.4594 79.3971ZM41.8113 74.917L40.5785 76.2486L37.9167 67.5838L39.0924 65.8524L41.8113 74.917Z" fill="#FF170A"/>
<path d="M61.1292 63.3656C60.1447 64.4787 59.0492 65.2522 57.8427 65.6861C56.6227 66.1079 55.3949 66.1966 54.1593 65.9522C52.9101 65.6957 51.7555 65.0998 50.6955 64.1643C49.6355 63.2289 48.896 62.1774 48.4768 61.0099C48.0696 59.8288 47.9832 58.6407 48.2175 57.4457C48.4502 56.225 49.0048 55.1193 49.8813 54.1283C50.7698 53.1238 51.7872 52.4386 52.9336 52.0726C54.0784 51.681 55.2634 51.6271 56.4886 51.9107C57.7002 52.1823 58.8428 52.7918 59.9164 53.7392C59.9843 53.7992 60.053 53.8719 60.1226 53.9575C60.1905 54.0174 60.2653 54.0834 60.3468 54.1554L52.1165 63.4606L51.0361 62.5071L58.5821 53.9757L58.5059 54.9236C57.7313 54.24 56.8949 53.804 55.9968 53.6157C55.0971 53.4018 54.2253 53.43 53.3813 53.7003C52.5373 53.9706 51.7851 54.4791 51.1247 55.2257C50.4764 55.9587 50.064 56.7669 49.8874 57.6505C49.7109 58.534 49.7843 59.4085 50.1077 60.2739C50.4311 61.1394 50.9869 61.9199 51.7751 62.6155L51.9993 62.8134C52.8147 63.5329 53.691 63.9921 54.6283 64.1908C55.564 64.364 56.4907 64.2874 57.4083 63.9613C58.3244 63.6095 59.1486 63.0196 59.881 62.1916C60.4573 61.54 60.876 60.834 61.1373 60.0736C61.4105 59.2996 61.4894 58.4991 61.374 57.6721L63.032 57.6852C63.1826 58.664 63.0892 59.645 62.7518 60.6283C62.4264 61.598 61.8856 62.5104 61.1292 63.3656Z" fill="#FF170A"/>
<path d="M85.8614 49.2204L70.6601 28.82L72.1003 27.7493L87.3015 48.1497L85.8614 49.2204Z" fill="black"/>
<path d="M109.633 28.0695L108.43 27.728L113.342 25.0919L114.166 26.6237L103.671 32.2559L102.847 30.7241L108.239 27.8309L107.86 29.0211L99.6467 13.7511L100.851 14.1534L95.7713 16.8795L94.9474 15.3477L101.034 12.0815L109.633 28.0695Z" fill="#FF170A"/>
<path d="M130.697 21.4286C129.775 21.7584 128.854 21.9822 127.933 22.1C127.029 22.2117 126.169 22.2308 125.353 22.1572C124.548 22.0605 123.818 21.879 123.164 21.6128L123.538 19.8341C124.354 20.177 125.336 20.3643 126.484 20.3962C127.643 20.4048 128.854 20.1832 130.117 19.7312C131.193 19.3464 132.031 18.8638 132.632 18.2833C133.233 17.7027 133.615 17.0755 133.777 16.4016C133.934 15.7106 133.884 15.007 133.627 14.2908C133.37 13.5746 132.956 13.0108 132.385 12.5995C131.825 12.1651 131.046 11.9532 130.048 11.9638C129.061 11.9513 127.791 12.223 126.238 12.7788L122.012 14.2905L119.74 4.97342L129.881 1.34539L130.468 2.98241L121.07 6.34476L121.696 5.11053L123.599 12.9146L122.373 12.3145L126.009 11.0135C127.853 10.3539 129.412 10.0557 130.687 10.1191C131.955 10.1655 132.978 10.4923 133.754 11.0996C134.548 11.7008 135.131 12.5215 135.504 13.5617C135.859 14.5507 135.938 15.5516 135.743 16.5642C135.558 17.5538 135.051 18.476 134.221 19.3309C133.408 20.1796 132.234 20.8789 130.697 21.4286Z" fill="#FF170A"/>
<path d="M157.874 15.8389L157.811 14.1771C157.94 14.18 158.06 14.1929 158.172 14.216C158.3 14.2188 158.41 14.2149 158.5 14.2041C159.076 14.135 159.509 13.8641 159.799 13.3915C160.107 12.9167 160.308 12.3088 160.402 11.5679C160.495 10.8269 160.524 10.0025 160.488 9.09468C160.45 8.16886 160.403 7.24412 160.347 6.32045L159.983 1.24677L170.381 0L172.083 14.1625L170.165 14.3924L168.596 1.33595L169.151 1.84415L161.427 2.77033L161.814 2.1218L162.091 6.24808C162.184 7.47747 162.226 8.65831 162.216 9.7906C162.224 10.9207 162.134 11.9257 161.948 12.8055C161.779 13.6831 161.481 14.3939 161.053 14.9377C160.623 15.4636 160.03 15.7719 159.274 15.8625C159.058 15.8885 158.831 15.8975 158.593 15.8896C158.372 15.8795 158.133 15.8626 157.874 15.8389Z" fill="#FF170A"/>
<path d="M189.233 15.0394C187.746 15.0107 186.447 14.6777 185.335 14.0402C184.223 13.3847 183.36 12.5076 182.747 11.4087C182.133 10.2918 181.84 9.02705 181.868 7.61448C181.895 6.20192 182.218 4.95811 182.838 3.88305C183.475 2.80835 184.325 1.97327 185.389 1.37781C186.471 0.764586 187.674 0.470734 188.997 0.496252C190.339 0.522119 191.52 0.852882 192.542 1.48854C193.582 2.10644 194.39 2.97351 194.967 4.08974C195.545 5.18787 195.819 6.45227 195.792 7.88294C195.79 7.97349 195.779 8.07292 195.759 8.18123C195.757 8.27178 195.755 8.37139 195.753 8.48004L183.325 8.24042L183.353 6.80069L194.747 7.02039L193.975 7.57617C193.995 6.54391 193.786 5.62499 193.348 4.81942C192.929 3.99609 192.343 3.35071 191.59 2.88328C190.837 2.41585 189.962 2.17253 188.965 2.1533C187.986 2.13443 187.102 2.34384 186.314 2.78156C185.526 3.21927 184.906 3.84141 184.455 4.64796C184.004 5.45451 183.769 6.38298 183.748 7.43335L183.743 7.73216C183.722 8.81875 183.939 9.78311 184.394 10.6253C184.868 11.4496 185.526 12.1055 186.369 12.5928C187.231 13.0623 188.214 13.3077 189.32 13.329C190.191 13.3458 191 13.2074 191.75 12.9139C192.517 12.6207 193.179 12.1624 193.735 11.5391L194.799 12.8096C194.149 13.558 193.341 14.1221 192.372 14.502C191.421 14.8823 190.375 15.0614 189.233 15.0394Z" fill="#FF170A"/>
<path d="M207.792 17.4462L209.804 4.50543L210.208 5.09057L204.375 4.18607L204.634 2.52149L217.24 4.47636L216.981 6.14095L211.149 5.23645L211.712 4.80137L209.701 17.7422L207.792 17.4462Z" fill="#FF170A"/>
<path d="M233.603 24.6298L238.317 11.1652L240.14 11.802L238.057 17.7521L246.556 20.7208L248.639 14.7708L250.462 15.4076L245.748 28.8721L243.925 28.2353L246.008 22.2853L237.509 19.3165L235.426 25.2666L233.603 24.6298Z" fill="#FF170A"/>
<path d="M262.944 38.4498L264.407 35.6571L264.574 35.1619L267.02 30.4913C267.583 29.4159 267.71 28.4298 267.402 27.533C267.11 26.6446 266.37 25.8897 265.181 25.2685C264.361 24.8403 263.51 24.5696 262.628 24.4563C261.746 24.3429 260.931 24.3767 260.181 24.5574L260.078 22.8785C261.007 22.6686 261.996 22.6542 263.047 22.8354C264.107 23.0006 265.135 23.3435 266.131 23.864C267.77 24.7203 268.817 25.7886 269.272 27.0688C269.752 28.3415 269.559 29.8044 268.693 31.4576L264.583 39.3061L262.944 38.4498ZM258.519 36.2909C257.571 35.7956 256.823 35.2108 256.276 34.5364C255.753 33.8545 255.449 33.1441 255.366 32.4053C255.29 31.6504 255.442 30.9119 255.82 30.1896C256.164 29.5315 256.628 29.0174 257.211 28.6473C257.818 28.2695 258.559 28.1048 259.434 28.1532C260.334 28.1939 261.386 28.5291 262.591 29.1587L266.954 31.438L266.285 32.714L261.971 30.4599C260.75 29.8218 259.785 29.5936 259.076 29.7751C258.383 29.965 257.868 30.3809 257.532 31.0229C257.154 31.7452 257.133 32.4699 257.468 33.1971C257.804 33.9243 258.477 34.5523 259.49 35.0812C260.454 35.5849 261.395 35.8006 262.313 35.7282C263.255 35.6482 264.105 35.2749 264.864 34.6081L264.632 35.9893C263.873 36.656 262.962 37.0283 261.898 37.1061C260.85 37.1923 259.724 36.9206 258.519 36.2909Z" fill="#FF170A"/>
<path d="M287.293 57.0979C286.334 56.3234 285.643 55.4047 285.221 54.3417C284.81 53.2646 284.709 52.1226 284.916 50.9158C285.149 49.7062 285.756 48.4958 286.736 47.2845C287.717 46.0732 288.769 45.2343 289.893 44.7677C291.028 44.2871 292.16 44.1416 293.289 44.3314C294.418 44.5211 295.469 45.0089 296.442 45.7947C297.5 46.6489 298.251 47.6514 298.695 48.8022C299.165 49.9503 299.292 51.1476 299.076 52.394C298.871 53.6263 298.318 54.7988 297.418 55.9115C296.506 57.0383 295.468 57.8306 294.304 58.2885C293.141 58.7464 291.942 58.8731 290.708 58.6687C289.489 58.4756 288.35 57.952 287.293 57.0979ZM278.328 56.4614L290.625 41.2708L292.063 42.4325L289.361 45.7706L287.417 47.8694L285.816 50.2797L279.83 57.6743L278.328 56.4614ZM288.264 55.6814C289.054 56.3192 289.902 56.7126 290.807 56.8615C291.724 56.9964 292.628 56.888 293.519 56.5362C294.421 56.1703 295.22 55.5578 295.916 54.6986C296.611 53.8394 297.038 52.9378 297.196 51.9938C297.354 51.0498 297.271 50.1441 296.947 49.2768C296.623 48.4095 296.066 47.657 295.276 47.0192C294.487 46.3814 293.626 45.9894 292.695 45.8431C291.779 45.7082 290.874 45.8167 289.983 46.1685C289.106 46.5317 288.32 47.1428 287.625 48.002C286.929 48.8612 286.49 49.7641 286.306 50.7108C286.149 51.6549 286.232 52.5605 286.556 53.4278C286.905 54.2925 287.475 55.0436 288.264 55.6814Z" fill="#FF170A"/>
<path d="M308.202 79.0798L318.695 69.4046L320.005 70.8221L309.512 80.4972L308.202 79.0798ZM309.629 67.0043C310.833 68.3343 311.469 69.6094 311.536 70.8298C311.602 72.0502 311.096 73.158 310.017 74.1532C308.897 75.1852 307.693 75.6049 306.405 75.4125C305.117 75.22 303.84 74.4255 302.574 73.0291L298.756 68.8581L309.249 59.1829L310.559 60.6003L306.902 63.9728L309.629 67.0043ZM303.561 71.9341C304.458 72.9313 305.333 73.4918 306.188 73.6157C307.069 73.7406 307.902 73.4406 308.688 72.7157C309.474 71.9909 309.82 71.2163 309.724 70.3922C309.642 69.5557 309.147 68.6322 308.238 67.6217L305.842 64.9496L301.165 69.2619L303.561 71.9341Z" fill="#FF170A"/>
<path d="M314.96 90.2188L326.895 82.3859L327.955 83.9981L322.681 87.4595L327.626 94.9754L332.899 91.514L333.96 93.1261L322.025 100.959L320.965 99.3469L326.239 95.8855L321.295 88.3696L316.021 91.831L314.96 90.2188Z" fill="#FF170A"/>
<path d="M330.804 121.051L334.753 112.757L336.291 113.812L331.764 123.122L330.804 121.051ZM326.404 111.559L339.362 105.565L340.173 107.315L327.215 113.309L326.404 111.559ZM332.739 110.095L334.245 109.399L336.177 113.565L334.671 114.262L332.739 110.095ZM335.372 114.416L334.865 112.675L343.671 114.859L344.551 116.758L335.372 114.416Z" fill="#FF170A"/>
<path d="M335.22 136.659C334.772 135.243 334.672 133.907 334.921 132.65C335.187 131.388 335.744 130.291 336.59 129.359C337.453 128.422 338.559 127.74 339.908 127.314C341.256 126.888 342.539 126.796 343.757 127.038C344.98 127.298 346.045 127.836 346.949 128.652C347.877 129.479 348.541 130.524 348.94 131.784C349.344 133.062 349.409 134.286 349.132 135.456C348.879 136.638 348.315 137.681 347.441 138.584C346.584 139.482 345.472 140.146 344.106 140.577C344.02 140.605 343.922 140.626 343.813 140.642C343.726 140.669 343.631 140.699 343.528 140.732L339.78 128.893L341.154 128.459L344.591 139.313L343.816 138.76C344.802 138.449 345.607 137.957 346.231 137.285C346.878 136.625 347.302 135.864 347.505 135.002C347.707 134.14 347.658 133.234 347.358 132.284C347.062 131.351 346.581 130.582 345.914 129.976C345.247 129.37 344.458 128.982 343.549 128.814C342.64 128.645 341.684 128.719 340.681 129.036L340.396 129.126C339.358 129.454 338.513 129.968 337.86 130.668C337.229 131.38 336.818 132.213 336.625 133.166C336.455 134.132 336.537 135.141 336.871 136.195C337.133 137.024 337.523 137.746 338.042 138.361C338.565 138.994 339.211 139.473 339.981 139.8L339.116 141.213C338.198 140.838 337.404 140.253 336.734 139.458C336.069 138.68 335.565 137.747 335.22 136.659Z" fill="#FF170A"/>
<path d="M334.489 164.456L359.82 161.911L360 163.695L334.668 166.24L334.489 164.456Z" fill="black"/>
</svg>
